<svg id="Capa_1" data-name="Capa 1" xmlns="http://www.w3.org/2000/svg" xmlns:xlink="http://www.w3.org/1999/xlink" viewBox="0 0 369.52 216.92"><defs><style>.cls-1{fill:url(#radial-gradient);}.cls-2,.cls-7{fill:#0b2d72;}.cls-2{stroke:#a6a8ab;stroke-miterlimit:10;stroke-width:2px;}.cls-3{fill:#a6a8ab;}.cls-4{fill:#d0d2d3;}.cls-5{mask:url(#mask);}.cls-6{fill:#fff;opacity:0.8;}.cls-10,.cls-7{fill-rule:evenodd;}.cls-8{fill:#0051a3;}.cls-9{fill:#f1f1f2;}.cls-10{fill:url(#linear-gradient);}</style><radialGradient id="radial-gradient" cx="420.14" cy="-447.49" r="17.92" gradientTransform="matrix(1.1, -0.35, 0.29, 0.97, -119.01, 702.52)" gradientUnits="userSpaceOnUse"><stop offset="0.28" stop-color="#0d0d0d"/><stop offset="0.33" stop-color="#121212"/><stop offset="0.4" stop-color="#1f1f1f"/><stop offset="0.47" stop-color="#363636"/><stop offset="0.55" stop-color="#565656"/><stop offset="0.62" stop-color="#7f7f7f"/><stop offset="0.7" stop-color="#b1b1b1"/><stop offset="0.78" stop-color="#ececec"/><stop offset="0.8" stop-color="#fff"/></radialGradient><mask id="mask" x="196.77" y="103.45" width="31.88" height="26.11" maskUnits="userSpaceOnUse"><polygon class="cls-1" points="228.65 121.13 202.08 129.57 196.77 111.89 223.34 103.45 228.65 121.13"/></mask><linearGradient id="linear-gradient" x1="196.45" y1="129.87" x2="236.2" y2="129.87" gradientUnits="userSpaceOnUse"><stop offset="0" stop-color="#0051a3"/><stop offset="0.29" stop-color="#0154a5"/><stop offset="0.48" stop-color="#055dab"/><stop offset="0.65" stop-color="#0b6cb5"/><stop offset="0.8" stop-color="#1481c4"/><stop offset="0.93" stop-color="#209cd7"/><stop offset="0.99" stop-color="#25a9e0"/></linearGradient></defs><title>MG_International</title><path class="cls-2" d="M61.8,89.8l.8-6.54,2-22.72,1-15q6,.07,9.4.07,2.83,0,8.65-.07c.28,1.86.52,3.27.71,4.23s.67,2.84,1.44,5.64,1.38,5.22,1.84,7.26,1.16,5.53,2.09,10.48q1.43-5.09,2.59-8.75t2.92-8.33Q97,51.44,97.46,50c.31-1,.74-2.44,1.28-4.43q4.86.07,9.53.07,3.17,0,8.81-.07-.61,10.92-.81,18.77-.42,15.34-.42,21.12c0,.8,0,2.25.06,4.34q-4.27-.06-6-.06-2.51,0-6.13.06.27-2.91.66-13.88c.27-7.32.4-12,.4-14,0-.88,0-2.11-.07-3.69L100.53,71.4l-6.1,18.4c-2.81,0-4.74-.06-5.8-.06q-2,0-6.15.06L78.48,72l-2.34-9.49c-.08-.37-.18-.82-.29-1.36s-.28-1.5-.52-2.85l-.82,9-1.08,18.4-.09,4.15-5.71-.06C66.51,89.74,64.56,89.76,61.8,89.8Z"/><path class="cls-2" d="M124.32,66.15c.41-2.14.67-3.61.78-4.42s.28-2.08.52-3.81a76.85,76.85,0,0,1,16-2,26.48,26.48,0,0,1,7,.86,10.19,10.19,0,0,1,5,2.77A7.71,7.71,0,0,1,155.4,65q0,1.81-.48,8.17t-.74,16.65q-3.18-.06-6.33-.06t-6.48.06q.44-3.55,1-14.71c-.82.39-1.46.67-1.93.84s-1.27.44-2.44.78-2.07.64-2.73.88a6.46,6.46,0,0,0-1.71.91,3.45,3.45,0,0,0-1,1.13,2.67,2.67,0,0,0-.31,1.29,2.41,2.41,0,0,0,.87,1.88,4.13,4.13,0,0,0,2.79.78,11.07,11.07,0,0,0,1.46-.11,14.28,14.28,0,0,0,2.14-.57c-.63,1.67-1.37,4.09-2.24,7.29a33.22,33.22,0,0,1-5.28.45,17.51,17.51,0,0,1-6.69-1.11,8.4,8.4,0,0,1-4.12-3.61,9.94,9.94,0,0,1-1.44-5,8.53,8.53,0,0,1,.54-3,10,10,0,0,1,1.66-2.85,11.41,11.41,0,0,1,2.66-2.38,18.12,18.12,0,0,1,4.16-1.86,55.17,55.17,0,0,1,6.69-1.66q1.68-.31,3.09-.69a14.42,14.42,0,0,0,2-.65,3.1,3.1,0,0,0,1-.65,2.29,2.29,0,0,0,.54-.78,2.39,2.39,0,0,0,.16-.86,2.13,2.13,0,0,0-1-1.89,5.69,5.69,0,0,0-3-.67C134.37,63,129.79,64.05,124.32,66.15Z"/><path class="cls-2" d="M247.87,80c-.28,1.29-.82,4.43-1.62,9.39a63.73,63.73,0,0,1-6.32,1q-2.56.24-5.19.24a43.26,43.26,0,0,1-7.09-.53,16.58,16.58,0,0,1-5.59-1.89,13.64,13.64,0,0,1-3.94-3.39,14.16,14.16,0,0,1-2.41-4.8,20.11,20.11,0,0,1-.83-5.73,20.93,20.93,0,0,1,1.65-8.11,16.2,16.2,0,0,1,4.26-6.2,15.37,15.37,0,0,1,6-3.17,25.85,25.85,0,0,1,7-.94,28,28,0,0,1,7,.86,13.08,13.08,0,0,1,5.69,3,12.38,12.38,0,0,1,3.32,4.83,16.7,16.7,0,0,1,1,5.8,22.92,22.92,0,0,1-.42,4.12l-22.72,0c0,.34,0,.65,0,.94a5.72,5.72,0,0,0,2.49,5.13,10.91,10.91,0,0,0,6.1,1.64,27.73,27.73,0,0,0,4.87-.5A67.18,67.18,0,0,0,247.87,80ZM227.94,69.55h10.69c0-.36,0-.68,0-.94a6.38,6.38,0,0,0-.6-2.88A3.79,3.79,0,0,0,236.35,64a5.54,5.54,0,0,0-2.51-.55,5.66,5.66,0,0,0-1.88.31,5,5,0,0,0-1.64.9A5.67,5.67,0,0,0,229.11,66a6.25,6.25,0,0,0-.72,1.51A16.53,16.53,0,0,0,227.94,69.55Z"/><path class="cls-2" d="M253,89.8l1-14.38.32-8.27c0-1.49,0-3,0-4.57s0-3.53-.07-5.86c2.62,0,4.69.07,6.22.07,1.8,0,3.86,0,6.2-.07l-.14,3.66a21.2,21.2,0,0,1,2.08-2.12A10.21,10.21,0,0,1,270.54,57a9.21,9.21,0,0,1,2.17-.84,10.1,10.1,0,0,1,2.36-.27,12.26,12.26,0,0,1,2.6.32c0,2.36.07,4.3.16,5.83l.22,5a12.11,12.11,0,0,0-3.33-.51,8.9,8.9,0,0,0-3.35.56,6.84,6.84,0,0,0-2.49,1.72,8.35,8.35,0,0,0-1.74,2.87,20.77,20.77,0,0,0-.9,5.44c-.18,2.49-.26,5.32-.26,8.52,0,1.13,0,2.52.13,4.18q-3.15-.06-6.33-.06T253,89.8Z"/><path class="cls-2" d="M149.65,116.66c2.86,0,5.58.07,8.18.07,4.42,0,7.89,0,10.39-.07q-.41,4.29-.83,12.15t-.51,11.89q-3.6.66-6,1c-1.58.19-3.47.38-5.68.53s-4.18.23-5.92.23a50.35,50.35,0,0,1-8.36-.68,28.06,28.06,0,0,1-7.34-2.23,15.43,15.43,0,0,1-5.4-4.17,19,19,0,0,1-3.33-6.24,23.76,23.76,0,0,1-1.18-7.46,23.16,23.16,0,0,1,3.16-11.8,22.57,22.57,0,0,1,9.1-8.63Q141.89,98,151.28,98a78.11,78.11,0,0,1,15.19,1.66q0,4.56.4,10.17c-1.5-.5-2.72-.88-3.64-1.14s-2-.5-3.26-.72-2.42-.38-3.54-.49-2.11-.15-3-.15a21.11,21.11,0,0,0-6.51,1,13.88,13.88,0,0,0-5.27,3,12.9,12.9,0,0,0-3.31,4.9,16.6,16.6,0,0,0-1.09,6,12.72,12.72,0,0,0,1.25,5.75,8.37,8.37,0,0,0,4,3.84,13.93,13.93,0,0,0,6.08,1.31,26,26,0,0,0,6.11-.81l.35-6.8c-1.36-.07-2.16-.1-2.42-.1l-3.32,0,.22-3.85c0-.41.05-1,.09-1.8S149.65,118,149.65,116.66Z"/><path class="cls-2" d="M172.21,141.61l1-13.92.31-8c0-1.44,0-2.91,0-4.42s0-3.4-.07-5.66c2.53,0,4.53.06,6,.06q2.6,0,6-.06l-.14,3.54a23.46,23.46,0,0,1,2-2,10.44,10.44,0,0,1,1.79-1.23,8.71,8.71,0,0,1,2.09-.81,10.18,10.18,0,0,1,2.29-.26,11.29,11.29,0,0,1,2.51.31q0,3.41.15,5.64l.22,4.81a11.71,11.71,0,0,0-3.22-.5,8.79,8.79,0,0,0-3.24.55,6.77,6.77,0,0,0-2.41,1.66,8.16,8.16,0,0,0-1.67,2.77,20.12,20.12,0,0,0-.88,5.27c-.16,2.4-.25,5.15-.25,8.24,0,1.09,0,2.44.13,4.05-2,0-4.06-.06-6.11-.06S174.53,141.57,172.21,141.61Z"/><path class="cls-3" d="M233.77,125.69a18,18,0,1,1-18-18A18,18,0,0,1,233.77,125.69Z"/><path class="cls-4" d="M215.73,144.11a18.42,18.42,0,1,1,18.42-18.42A18.43,18.43,0,0,1,215.73,144.11Zm0-36.08a17.67,17.67,0,1,0,17.67,17.66A17.68,17.68,0,0,0,215.73,108Z"/><g class="cls-5"><path class="cls-6" d="M225.4,112.48c1.3,4.31-3.33,9.62-10.34,11.84s-13.75.53-15-3.78,3.34-9.62,10.35-11.84S224.11,108.17,225.4,112.48Z"/></g><path class="cls-7" d="M206.63,132.92a.82.82,0,0,1-.67-1.17l3.17-6.93s.52-1.45,1.27-.77a20,20,0,0,1,1.6,2.19c8.41-3.28,15.66-18.28,6.23-19.13a6.13,6.13,0,0,0-1.67.17c13.59-3.88,11,16.25-1.27,23.35,0,.14.73,1.36,1.09,2.15s-.18,1.22-1.1,1.2Z"/><path class="cls-8" d="M114.61,179.46l-2.55.1c.71-3.07,1.34-6.34,1.91-9.8l-1.13,0,.6-1.3.34-.16c.66,0,1.64,0,3-.07A111.91,111.91,0,0,0,114.61,179.46Z"/><path class="cls-8" d="M128.61,179.46c-.69,0-1.56,0-2.59.1l-.19-.17q-.73-1.66-2-4.27c-1-2-1.65-3.43-2-4.18-.31,1.78-.75,4.57-1.33,8.35l-.2.17c-.63,0-1.33,0-2.12.1q.82-3.56,1.57-7.77c.13-.7.31-1.8.54-3.31l.33-.18c.38,0,1.18,0,2.38-.09l.25.17,3.89,8.42c.31-1.81.75-4.59,1.31-8.32l.22-.16c.55,0,1.25,0,2.09-.11Q129.27,175.38,128.61,179.46Z"/><path class="cls-8" d="M141.9,169.68l-.22.18h-.78l-2.47,0q-1.1,5.16-1.77,9.58c-.67,0-1.55,0-2.63.12q1.22-5.19,2-9.82l-3.45.12c.07-.31.18-.76.32-1.35l.19-.18q3,0,9.17,0A13.82,13.82,0,0,0,141.9,169.68Z"/><path class="cls-8" d="M146.46,169.78c-.23.95-.45,2-.67,3.11h.13c1,0,2.59,0,4.66,0-.15.47-.29.93-.4,1.4l-.19.19-2.1-.07-2.1,0h-.29c-.24,1.15-.47,2.37-.71,3.65l1.7,0h1.72c.7,0,1.32,0,1.87-.05l-.36,1.38-.23.17-1.33,0h-6.11q.84-3.41,1.36-6.43c.08-.43.18-1.06.3-1.9s.23-1.48.31-1.91.11-.58.17-.81l.21-.16c1.68,0,4.19,0,7.55-.07q-.15.47-.42,1.41l-.19.19c-.4,0-1.19,0-2.37-.07-.95,0-1.73-.05-2.36-.05Z"/><path class="cls-8" d="M160.21,179.65l-.2-.1q-.45-.8-3.06-4.79a3.79,3.79,0,0,0-.34-1,5.85,5.85,0,0,0,1.63-.2,5.73,5.73,0,0,0,1.86-.59,2.16,2.16,0,0,0,.62-.72,2.53,2.53,0,0,0,.35-.91c0-.13,0-.26,0-.38a1.13,1.13,0,0,0-.67-1.11,4.05,4.05,0,0,0-1.67-.26l-1.38,0c-.46,2.25-.79,3.9-1,4.93-.33,1.84-.59,3.49-.77,5q-1.06,0-2.58.12.15-.65,1.26-6.06c.28-1.43.57-3.2.85-5.31.47,0,1.24,0,2.3-.06.89,0,1.58-.05,2.07-.05q4,0,4,2.43a2.32,2.32,0,0,1,0,.51,3.66,3.66,0,0,1-1.46,2.3,6.32,6.32,0,0,1-2.48,1.28c.8,1.26,1.44,2.23,1.91,2.92.32.41.86,1.07,1.6,2Z"/><path class="cls-8" d="M175.57,179.46c-.7,0-1.56,0-2.59.1l-.19-.17q-.73-1.66-2-4.27c-1-2-1.65-3.43-2-4.18-.31,1.78-.76,4.57-1.33,8.35l-.2.17c-.63,0-1.34,0-2.12.1q.82-3.56,1.56-7.77c.14-.7.32-1.8.54-3.31l.34-.18q.57,0,2.37-.09l.25.17q.07.13,3.89,8.42c.32-1.81.76-4.59,1.32-8.32l.22-.16c.55,0,1.24,0,2.08-.11Q176.22,175.38,175.57,179.46Z"/><path class="cls-8" d="M188.85,179.48l-2.15.08-.17-.18c-.09-.73-.23-1.83-.41-3.29l-4.15.07q-1,1.84-1.65,3.12l-.24.18c-.66,0-1.43,0-2.29.1q2.6-4.32,3.33-5.6c1.19-2,2.22-3.84,3.07-5.44l.27-.17c1,0,2-.07,2.78-.12l.16.17q.22,1.8.81,5.39.48,2.93.93,5.45Zm-3.58-9-2.51,4.31c1,0,2,0,3.16-.05Z"/><path class="cls-8" d="M200.32,169.68l-.22.18h-.78l-2.47,0q-1.09,5.16-1.77,9.58c-.67,0-1.55,0-2.62.12q1.2-5.19,2-9.82l-3.46.12c.07-.31.18-.76.32-1.35l.19-.18q3,0,9.17,0C200.49,168.92,200.37,169.38,200.32,169.68Z"/><path class="cls-8" d="M203.25,179.46l-2.54.1c.7-3.07,1.34-6.34,1.9-9.8l-1.13,0,.61-1.3.33-.16c.66,0,1.65,0,3-.07Q203.95,174.28,203.25,179.46Z"/><path class="cls-8" d="M211.68,179.71a5.13,5.13,0,0,1-3.7-1.24,4.25,4.25,0,0,1-1.21-3.22,6.75,6.75,0,0,1,.08-1.09,7,7,0,0,1,7.31-6.25,5.06,5.06,0,0,1,3.68,1.25,4.24,4.24,0,0,1,1.2,3.2,8.06,8.06,0,0,1-.08,1.07,7.3,7.3,0,0,1-2.24,4.5A7.19,7.19,0,0,1,211.68,179.71Zm2.17-10.35a3.87,3.87,0,0,0-3.14,1.4,6.35,6.35,0,0,0-1.3,3.26,7.09,7.09,0,0,0-.09,1.1c0,2.09.91,3.13,2.73,3.13a3.91,3.91,0,0,0,3.42-1.95,7.11,7.11,0,0,0,1.11-4C216.58,170.35,215.67,169.36,213.85,169.36Z"/><path class="cls-8" d="M231.33,179.46c-.7,0-1.56,0-2.59.1l-.19-.17q-.74-1.66-2-4.27c-1-2-1.65-3.43-2-4.18-.31,1.78-.76,4.57-1.33,8.35l-.2.17c-.63,0-1.34,0-2.12.1q.83-3.56,1.56-7.77c.14-.7.32-1.8.54-3.31l.34-.18q.57,0,2.37-.09l.26.17,3.89,8.42c.31-1.81.75-4.59,1.31-8.32l.22-.16c.55,0,1.24,0,2.08-.11Q232,175.38,231.33,179.46Z"/><path class="cls-8" d="M244.61,179.48l-2.15.08-.17-.18c-.09-.73-.22-1.83-.4-3.29l-4.16.07q-1,1.84-1.65,3.12l-.24.18c-.66,0-1.42,0-2.29.1q2.59-4.32,3.34-5.6,1.79-3,3.06-5.44l.27-.17c1,0,2-.07,2.78-.12l.17.17q.21,1.8.8,5.39.48,2.93.93,5.45Zm-3.58-9-2.51,4.31c1,0,2,0,3.16-.05Z"/><path class="cls-8" d="M254.4,179.31l-.19.19c-1.61,0-4,0-7.22,0,.49-2.21.84-3.82,1-4.85.36-1.71.65-3.26.86-4.67a11.68,11.68,0,0,0,.15-1.7c.6,0,1.52,0,2.76-.1-.69,2.76-1.38,6-2.05,9.73,1.35,0,3-.09,5.05-.17C254.71,178.1,254.58,178.62,254.4,179.31Z"/><rect class="cls-8" x="263.05" y="172.86" width="46.29" height="3"/><rect class="cls-8" x="54.81" y="172.86" width="46.49" height="3"/><path class="cls-2" d="M208.82,81a4,4,0,0,1-1.89-.45,2.5,2.5,0,0,1-1.2-1.48,8.6,8.6,0,0,1-.34-2.59c0-.34,0-1.11.07-2.32l.39-8.07h7.43q0-2.16.25-8.88h-7.36c.07-3.25.17-6.28.33-9.1-3.3.8-5.46,1.29-6.46,1.48l-5.53,1.13q-.3,5-.48,6.49l-5.63,0h0a118.41,118.41,0,0,0-14.57-1.29,22.09,22.09,0,0,0-7.28,1A8.68,8.68,0,0,0,162,60.34a8.94,8.94,0,0,0-1.53,5,8.13,8.13,0,0,0,.53,2.93,9.22,9.22,0,0,0,1.54,2.65,20.1,20.1,0,0,0,3,2.81q2,1.59,4.65,3.52a6.71,6.71,0,0,1,1.53,1.37,1.67,1.67,0,0,1-.11,2.15,2.87,2.87,0,0,1-1.43.84,9.47,9.47,0,0,1-2.57.29,16.23,16.23,0,0,1-4.15-.6,52.7,52.7,0,0,1-5.38-1.82l.26,2.32c.19,1.83.33,3.27.42,4.31s.17,2,.26,3c2.49.53,4.69.91,6.57,1.13a43.77,43.77,0,0,0,4.69.32,28.81,28.81,0,0,0,5.39-.5,15.58,15.58,0,0,0,4.86-1.79A8.83,8.83,0,0,0,184,85.06a8.59,8.59,0,0,0,.61-7.11,9.2,9.2,0,0,0-1.45-2.58,16.11,16.11,0,0,0-2.76-2.63c-.73-.58-1.74-1.32-3-2.23l-2.44-1.72a7.1,7.1,0,0,1-.84-.73,2.2,2.2,0,0,1-.47-.68,1.91,1.91,0,0,1-.13-.68,1.71,1.71,0,0,1,1.15-1.6,9.47,9.47,0,0,1,3.7-.53c2.4,0,6.73.86,10,1.25l5,.31-.71,11.17c-.13,1.89-.2,3.11-.22,3.66s0,.93,0,1.15a11,11,0,0,0,.52,3.42,6.19,6.19,0,0,0,1.93,2.85,7.93,7.93,0,0,0,3.55,1.72,23.13,23.13,0,0,0,4.88.46,32.11,32.11,0,0,0,3.47-.19,49.94,49.94,0,0,0,5-.9l.71-3.94c.28-1.72.62-3.49,1-5.29-1.43.38-2.42.61-3,.69A12.94,12.94,0,0,1,208.82,81Z"/><path class="cls-2" d="M301.11,118.79a15.34,15.34,0,0,0-3.46-5.67,12.44,12.44,0,0,0-6.09-3.32,34.74,34.74,0,0,0-8.3-.93c-2.39,0-4.8.11-7.2.32s-5.42.62-9.38,1.22l-4.77,0-.24,6.54q-.21,4.53-.34,6.39a32.63,32.63,0,0,1-.53,4.19,10.09,10.09,0,0,1-.75,2.23,6.4,6.4,0,0,1-.94,1.44,5.09,5.09,0,0,1-1.1.94,6.43,6.43,0,0,1-1.45.63,5.19,5.19,0,0,1-1.5.22,4.71,4.71,0,0,1-3.19-1.16c-.89-.78-1.33-2.26-1.33-4.46,0-.23,0-.67,0-1.33s.09-1.89.24-3.71l1-11.92q-3.31.06-6.08.06t-6.6-.06c0,1.73,0,3.56-.12,5.51q-.19,4.75-.41,8.67l-.5,7.11c-.07.8-.1,1.38-.1,1.76a12.58,12.58,0,0,0,.61,4.07,7.11,7.11,0,0,0,2.29,3.14,10,10,0,0,0,3.88,2,18.19,18.19,0,0,0,4.68.58,20.16,20.16,0,0,0,3-.22,14.38,14.38,0,0,0,2.63-.61,11.57,11.57,0,0,0,2.07-.93,9.81,9.81,0,0,0,1.7-1.23,19.5,19.5,0,0,0,1.91-2.12l0,4.29,4.16-.05c0,.41-.06.81-.08,1.23q-.41,6.39-1,12.81,4.26-.06,6.52-.06,2.6,0,6.24.06,0-3.06.22-9.08l.35-8.75a25.64,25.64,0,0,0,2.45,1.68,16.44,16.44,0,0,0,2.46,1.15,18,18,0,0,0,3.11.86,17.55,17.55,0,0,0,3.17.29,12.89,12.89,0,0,0,5.62-1.19,12.41,12.41,0,0,0,4.46-3.66,17,17,0,0,0,2.87-5.57,21.66,21.66,0,0,0,.94-6.38A20.64,20.64,0,0,0,301.11,118.79Zm-11.92,10.84a6.61,6.61,0,0,1-2.29,3,5.47,5.47,0,0,1-3.16,1,5.38,5.38,0,0,1-3.06-1,6.25,6.25,0,0,1-2.22-2.69,10.37,10.37,0,0,1-.8-4.31c0-.61,0-1.42.1-2.43s.12-1.82.18-2.41.18-1.36.35-2.3a18.84,18.84,0,0,1,4.82-.72,6.47,6.47,0,0,1,5.15,2,7.94,7.94,0,0,1,1.77,5.39A11.28,11.28,0,0,1,289.19,129.63Z"/><path class="cls-9" d="M225.73,111c-1-3.91-4.46-5.45-9.27-4.08a1.13,1.13,0,0,0-.56.37,21.32,21.32,0,0,1,2.14.16h.15l.56.08h0a3.81,3.81,0,0,1,3.48,3.39c.67,4.76-4.65,12.55-10.09,14.87a14.9,14.9,0,0,0-1.5-2,.93.93,0,0,0-.65-.28c-.75,0-1.15,1-1.21,1.17l-3.19,7a1.32,1.32,0,0,0,.1,1.1,1.26,1.26,0,0,0,.89.54l8.68,1.06h.06a1.54,1.54,0,0,0,1.33-.61,1.17,1.17,0,0,0,.06-1.12c-.18-.39-.45-.89-.68-1.31l-.28-.53C223.31,126.26,227.25,116.66,225.73,111ZM215.1,130.31a.36.36,0,0,0-.18.27c0,.19.06.35.46,1.1.23.4.49.88.66,1.26a.44.44,0,0,1,0,.4.81.81,0,0,1-.7.27h0l-8.63-1.06a.57.57,0,0,1-.37-.2.62.62,0,0,1,0-.44l3.19-7c.11-.32.37-.7.51-.7a.26.26,0,0,1,.14.08,17.65,17.65,0,0,1,1.55,2.11.36.36,0,0,0,.45.15c5.91-2.31,11.58-10.57,10.84-15.79a4.32,4.32,0,0,0-2.76-3.62,5,5,0,0,1,4.79,4C226.48,116.66,222.55,126,215.1,130.31Z"/><path class="cls-10" d="M197.18,128.68c-5.64,18.36,22.75,18.9,34.6.38a18.33,18.33,0,0,0,2.64,1.8c1,.42,1.81-.21,1.78-1.62l-.73-10.71c-.07-1.78-1.17-1.59-2.08-1.32L224.13,120s-2.09.73-.9,2.19a17.09,17.09,0,0,0,2.36,2.28c-6,11.57-26.59,19.23-27.74,5.78Z"/><path class="cls-9" d="M235.85,118.51c-.07-1.53-.86-1.85-1.52-1.85a3.62,3.62,0,0,0-1.05.2L224,119.68a2.37,2.37,0,0,0-1.48,1.32,1.57,1.57,0,0,0,.39,1.43,15.4,15.4,0,0,0,2.2,2.16c-3.64,6.66-12.68,12.45-19.54,12.45-2.52,0-5.49-.78-6.77-4.1a.36.36,0,0,0,0-.09,18,18,0,0,1-1.38-5.57,7.74,7.74,0,0,0-.57,1.28c-1.26,4.1-.92,7.64,1,10.22,2.05,2.77,5.74,4.29,10.41,4.29,7.4,0,17.54-4.17,23.67-13.49l.23.18a8.41,8.41,0,0,0,2.16,1.45,1.56,1.56,0,0,0,1.76-.27,2.35,2.35,0,0,0,.54-1.73Zm-.35,11.91a.83.83,0,0,1-.95.09,8,8,0,0,1-2-1.32c-.46-.38-.61-.51-.82-.51a.38.38,0,0,0-.31.17c-6,9.31-16,13.47-23.25,13.47-4.42,0-7.9-1.41-9.81-4-1.59-2.16-2-5.09-1.16-8.51l.23.55c.43,4.79,3.31,7.42,8.1,7.42,7.32,0,16.63-6,20.34-13.12a.4.4,0,0,0-.09-.47,16.8,16.8,0,0,1-2.31-2.22.85.85,0,0,1-.26-.77c.12-.43.76-.74,1-.82l9.26-2.82a3.21,3.21,0,0,1,.83-.16c.25,0,.72,0,.77,1.15l.73,10.69A1.65,1.65,0,0,1,235.5,130.42Z"/></svg>