<svg xmlns="http://www.w3.org/2000/svg" width="30.913" height="29.863" viewBox="0 0 30.913 29.863">
  <defs>
    <style>
      .cls-1 {
        fill: #00a859;
        stroke: #00a859;
        fill-rule: evenodd;
      }
    </style>
  </defs>
  <path id="map" class="cls-1" d="M29.571.2a.89.89,0,0,1,.342.7v25.25a.911.911,0,0,1-.752.884l-9.348,1.8a.972.972,0,0,1-.366,0l-9.165-1.767L1.118,28.839a.96.96,0,0,1-.776-.187.89.89,0,0,1-.342-.7V2.705a.911.911,0,0,1,.752-.884L10.1.018a.968.968,0,0,1,.366,0L19.63,1.785,28.8.018A.96.96,0,0,1,29.571.2ZM18.7,3.445,11.217,2v23.41L18.7,26.855Zm1.87,23.41,7.478-1.443V2L20.565,3.445ZM9.348,25.412V2L1.87,3.445v23.41Z" transform="translate(0.5 0.503)"/>
</svg>
