<svg xmlns="http://www.w3.org/2000/svg" xmlns:xlink="http://www.w3.org/1999/xlink" width="925.24" height="434.949" viewBox="0 0 925.24 434.949">
  <defs>
    <style>
      .cls-1 {
        fill: #31b45b;
      }

      .cls-11, .cls-2, .cls-5 {
        fill: #fff;
      }

      .cls-3 {
        fill: #8a5022;
      }

      .cls-4 {
        fill: #9a3434;
      }

      .cls-5 {
        opacity: 0.199;
      }

      .cls-6 {
        fill: #ffebcb;
      }

      .cls-14, .cls-7 {
        fill: #a8d046;
      }

      .cls-12, .cls-8 {
        fill: #00a859;
      }

      .cls-13, .cls-9 {
        fill: #f58634;
      }

      .cls-10, .cls-15 {
        fill: #37cef6;
      }

      .cls-11 {
        font-size: 42px;
      }

      .cls-11, .cls-12, .cls-13, .cls-14, .cls-15 {
        font-family: OpenSans-Bold, Open Sans;
        font-weight: 700;
      }

      .cls-12, .cls-13, .cls-14, .cls-15 {
        font-size: 20px;
      }

      .cls-16 {
        clip-path: url(#clip-path);
      }

      .cls-17 {
        fill: #ef7d2c;
      }

      .cls-18 {
        fill: #dedede;
      }

      .cls-19 {
        clip-path: url(#clip-path-2);
      }

      .cls-20 {
        fill: #1d74b1;
      }

      .cls-21 {
        fill: #2792d3;
      }

      .cls-22 {
        fill: #19a54f;
      }

      .cls-23 {
        clip-path: url(#clip-path-3);
      }

      .cls-24 {
        fill: #008c26;
      }

      .cls-25 {
        clip-path: url(#clip-path-4);
      }

      .cls-26 {
        fill: #579eff;
      }

      .cls-27 {
        fill: #ffe2b5;
      }

      .cls-28 {
        clip-path: url(#clip-path-5);
      }

      .cls-29 {
        fill: #523900;
      }

      .cls-30 {
        fill: #584100;
      }
    </style>
    <clipPath id="clip-path">
      <rect id="Rectangle_72" data-name="Rectangle 72" class="cls-1" width="136" height="107" transform="translate(756.802 1840.935)"/>
    </clipPath>
    <clipPath id="clip-path-2">
      <rect id="Rectangle_72-2" data-name="Rectangle 72" class="cls-2" width="136" height="107" transform="translate(756.802 1840.935)"/>
    </clipPath>
    <clipPath id="clip-path-3">
      <rect id="Rectangle_150" data-name="Rectangle 150" class="cls-4" width="146" height="49" transform="translate(942.33 6386.043)"/>
    </clipPath>
    <clipPath id="clip-path-4">
      <rect id="Rectangle_151" data-name="Rectangle 151" class="cls-5" width="115" height="144" transform="translate(1746 5918)"/>
    </clipPath>
    <clipPath id="clip-path-5">
      <ellipse id="Ellipse_99" data-name="Ellipse 99" class="cls-6" cx="39" cy="44.5" rx="39" ry="44.5" transform="translate(1763 5928)"/>
    </clipPath>
  </defs>
  <g id="Group_138" data-name="Group 138" transform="translate(-4918.76 -6880.525)">
    <g id="Group_135" data-name="Group 135">
      <path id="Subtraction_16" data-name="Subtraction 16" class="cls-7" d="M225.493,0H140a141.029,141.029,0,0,1-2.844,28.215A139.3,139.3,0,0,1,129,54.494,140.019,140.019,0,0,1,116.09,78.275,141.008,141.008,0,0,1,99,99a141.01,141.01,0,0,1-20.72,17.1A140.017,140.017,0,0,1,54.494,129a139.3,139.3,0,0,1-26.279,8.158A141.035,141.035,0,0,1,0,140v76.433l.025,0c.414.023,1.956.1,4.423.1A182.552,182.552,0,0,0,27,215a226.543,226.543,0,0,0,36.433-7.721A227.372,227.372,0,0,0,107.9,188.668,224.72,224.72,0,0,0,131.332,173.8a228.542,228.542,0,0,0,23.248-19.351,225.438,225.438,0,0,0,23.368-25.961,227.584,227.584,0,0,0,17.571-26.567,238.2,238.2,0,0,0,21.059-49.938c2.026-6.889,3.755-13.908,5.14-20.863,1.108-5.565,2-11.1,2.648-16.455A140.237,140.237,0,0,0,225.493,0Z" transform="translate(5384.253 7098.941)"/>
      <g id="Group_124" data-name="Group 124" transform="translate(1552.753 1386.441)">
        <path id="Subtraction_11" data-name="Subtraction 11" class="cls-8" d="M225.493,0H140a141.029,141.029,0,0,1-2.844,28.215A139.3,139.3,0,0,1,129,54.494,140.019,140.019,0,0,1,116.09,78.275,141.008,141.008,0,0,1,99,99a141.01,141.01,0,0,1-20.72,17.1A140.017,140.017,0,0,1,54.494,129a139.3,139.3,0,0,1-26.279,8.158A141.035,141.035,0,0,1,0,140v76.433l.025,0c.414.023,1.956.1,4.423.1A182.552,182.552,0,0,0,27,215a226.543,226.543,0,0,0,36.433-7.721A227.371,227.371,0,0,0,107.9,188.668,224.721,224.721,0,0,0,131.332,173.8a228.542,228.542,0,0,0,23.248-19.351,225.438,225.438,0,0,0,23.368-25.961,227.582,227.582,0,0,0,17.571-26.567,238.2,238.2,0,0,0,21.059-49.938c2.026-6.889,3.755-13.908,5.14-20.863,1.108-5.565,2-11.1,2.648-16.455A140.237,140.237,0,0,0,225.493,0Z" transform="translate(3831.5 5712.5) rotate(180)"/>
      </g>
      <g id="Group_127" data-name="Group 127" transform="translate(1552.753 1386.441)">
        <path id="Subtraction_10" data-name="Subtraction 10" class="cls-9" d="M365.993,216.534H280.5a141.029,141.029,0,0,0-2.844-28.215,139.233,139.233,0,0,0-21.066-50.061,140.41,140.41,0,0,0-61.6-50.723,139.3,139.3,0,0,0-26.279-8.158A141.034,141.034,0,0,0,140.5,76.533V.1l.025,0c.414-.023,1.956-.1,4.423-.1A182.55,182.55,0,0,1,167.5,1.529a225.82,225.82,0,0,1,168.522,113.08,238.2,238.2,0,0,1,21.059,49.938c2.026,6.889,3.755,13.908,5.14,20.863,1.108,5.565,2,11.1,2.648,16.455a140.237,140.237,0,0,1,1.127,14.667Z" transform="translate(3691 5495.966)"/>
        <path id="Path_90" data-name="Path 90" class="cls-8" d="M38.267,0,76.533,33V51.746l-75.092.24L0,33Z" transform="translate(3864.5 5495.967) rotate(90)"/>
        <path id="Path_91" data-name="Path 91" class="cls-9" d="M42.876,0,85.753,33V51.746l-84.138.24L0,33Z" transform="translate(4056.993 5745.493) rotate(180)"/>
      </g>
      <g id="Group_128" data-name="Group 128" transform="translate(1552.753 1386.441)">
        <path id="Subtraction_13" data-name="Subtraction 13" class="cls-10" d="M225.493,216.533H140a141.029,141.029,0,0,0-2.844-28.215A139.3,139.3,0,0,0,129,162.039a140.019,140.019,0,0,0-12.908-23.781A141.008,141.008,0,0,0,99,117.538a141.01,141.01,0,0,0-20.72-17.1A140.017,140.017,0,0,0,54.494,87.535a139.3,139.3,0,0,0-26.279-8.158A141.035,141.035,0,0,0,0,76.533V.1L.025.1C.439.074,1.981,0,4.448,0A182.552,182.552,0,0,1,27,1.528,226.543,226.543,0,0,1,63.43,9.249,227.372,227.372,0,0,1,107.9,27.865a224.72,224.72,0,0,1,23.428,14.864A228.542,228.542,0,0,1,154.58,62.08a225.438,225.438,0,0,1,23.368,25.961,227.584,227.584,0,0,1,17.571,26.567,238.2,238.2,0,0,1,21.059,49.938c2.026,6.889,3.755,13.908,5.14,20.863,1.108,5.565,2,11.1,2.648,16.455a140.237,140.237,0,0,1,1.127,14.667Z" transform="translate(3831.5 5929.033) rotate(180)"/>
        <path id="Path_92" data-name="Path 92" class="cls-7" d="M38.281,0,76.562,33V51.746l-75.12.24L0,33Z" transform="translate(3798.507 5929.033) rotate(-90)"/>
        <path id="Path_93" data-name="Path 93" class="cls-10" d="M42.691,0,85.382,33V51.746l-83.774.24L0,33Z" transform="translate(3606.007 5679.507)"/>
      </g>
      <g id="Group_125" data-name="Group 125" transform="translate(1049.652 1111.34)">
        <circle id="Ellipse_62" data-name="Ellipse 62" class="cls-2" cx="47" cy="47" r="47" transform="translate(4161.101 5813.102)"/>
        <circle id="Ellipse_63" data-name="Ellipse 63" class="cls-8" cx="39" cy="39" r="39" transform="translate(4169.101 5821.102)"/>
        <text id="_1" data-name="1" class="cls-11" transform="translate(4195.101 5877.101)"><tspan x="0" y="0">1</tspan></text>
      </g>
      <g id="Group_129" data-name="Group 129" transform="translate(1321.175 908.863)">
        <circle id="Ellipse_64" data-name="Ellipse 64" class="cls-2" cx="48" cy="48" r="48" transform="translate(4151.579 6025.579)"/>
        <circle id="Ellipse_65" data-name="Ellipse 65" class="cls-9" cx="39" cy="39" r="39" transform="translate(4160.579 6034.579)"/>
        <text id="_2" data-name="2" class="cls-11" transform="translate(4187.579 6089.579)"><tspan x="0" y="0">2</tspan></text>
      </g>
      <g id="Group_131" data-name="Group 131" transform="translate(1306.378 999.066)">
        <circle id="Ellipse_66" data-name="Ellipse 66" class="cls-2" cx="47" cy="47" r="47" transform="translate(4152.375 6185.375)"/>
        <circle id="Ellipse_67" data-name="Ellipse 67" class="cls-7" cx="39" cy="39" r="39" transform="translate(4160.375 6193.375)"/>
        <text id="_3" data-name="3" class="cls-11" transform="translate(4187.375 6249.375)"><tspan x="0" y="0">3</tspan></text>
      </g>
      <g id="Group_130" data-name="Group 130" transform="translate(1172.927 1081.615)">
        <circle id="Ellipse_68" data-name="Ellipse 68" class="cls-2" cx="48" cy="48" r="48" transform="translate(4025.826 6084.826)"/>
        <circle id="Ellipse_69" data-name="Ellipse 69" class="cls-10" cx="39" cy="39" r="39" transform="translate(4034.826 6093.826)"/>
        <text id="_4" data-name="4" class="cls-11" transform="translate(4061.826 6148.826)"><tspan x="0" y="0">4</tspan></text>
      </g>
      <text id="_1._Uso_de_residuos_como_insumos" data-name="1. Uso de residuos
como insumos" class="cls-12" transform="translate(5384 7029.441)"><tspan x="-89.644" y="0">1. Uso de residuos</tspan><tspan x="-72.09" y="27">como insumos</tspan></text>
      <text id="_2._Producción" data-name="2. Producción" class="cls-13" transform="translate(5317 7093.441)"><tspan x="0" y="0">2. Producción</tspan></text>
      <text id="_3._Consumo" data-name="3. Consumo" class="cls-14" transform="translate(5326 7130.441)"><tspan x="0" y="0">3. Consumo</tspan></text>
      <text id="_4._Gestión_de_los_Residuos" data-name="4. Gestión de los 
Residuos" class="cls-15" transform="translate(5384 7167.441)"><tspan x="-83.677" y="0">4. Gestión de los </tspan><tspan x="-44.595" y="27">Residuos</tspan></text>
      <g id="Group_132" data-name="Group 132" transform="translate(4983.87 5112.525)">
        <g id="Group_59" data-name="Group 59" transform="translate(-30.87 11)">
          <g id="Mask_Group_5" data-name="Mask Group 5" class="cls-16" transform="translate(-1.802 -22.934)">
            <path id="Polygon_9" data-name="Polygon 9" class="cls-1" d="M65.02,18.323a10,10,0,0,1,17.959,0L140.943,136.6a10,10,0,0,1-8.98,14.4H16.037a10,10,0,0,1-8.98-14.4Z" transform="translate(750.802 1796.934)"/>
          </g>
          <rect id="Rectangle_73" data-name="Rectangle 73" class="cls-17" width="72" height="27" rx="5" transform="translate(787 1812)"/>
          <ellipse id="Ellipse_7" data-name="Ellipse 7" class="cls-18" cx="24.5" cy="17" rx="24.5" ry="17" transform="translate(734 1778)"/>
          <ellipse id="Ellipse_8" data-name="Ellipse 8" class="cls-18" cx="24.5" cy="17" rx="24.5" ry="17" transform="translate(759 1767)"/>
          <ellipse id="Ellipse_9" data-name="Ellipse 9" class="cls-18" cx="17" cy="12" rx="17" ry="12" transform="translate(783 1785)"/>
          <ellipse id="Ellipse_10" data-name="Ellipse 10" class="cls-18" cx="26" cy="18.5" rx="26" ry="18.5" transform="translate(783 1757)"/>
          <ellipse id="Ellipse_11" data-name="Ellipse 11" class="cls-18" cx="21.5" cy="15" rx="21.5" ry="15" transform="translate(797 1782)"/>
        </g>
        <g id="Group_58" data-name="Group 58" transform="translate(-113.87 11)">
          <g id="Mask_Group_5-2" data-name="Mask Group 5" class="cls-19" transform="translate(-1.802 -22.934)">
            <path id="Polygon_9-2" data-name="Polygon 9" class="cls-20" d="M65.02,18.323a10,10,0,0,1,17.959,0L140.943,136.6a10,10,0,0,1-8.98,14.4H16.037a10,10,0,0,1-8.98-14.4Z" transform="translate(750.802 1796.934)"/>
          </g>
          <rect id="Rectangle_73-2" data-name="Rectangle 73" class="cls-17" width="72" height="27" rx="5" transform="translate(787 1812)"/>
          <ellipse id="Ellipse_7-2" data-name="Ellipse 7" class="cls-18" cx="24.5" cy="17" rx="24.5" ry="17" transform="translate(734 1778)"/>
          <ellipse id="Ellipse_8-2" data-name="Ellipse 8" class="cls-18" cx="24.5" cy="17" rx="24.5" ry="17" transform="translate(759 1767)"/>
          <ellipse id="Ellipse_9-2" data-name="Ellipse 9" class="cls-18" cx="17" cy="12" rx="17" ry="12" transform="translate(783 1785)"/>
          <ellipse id="Ellipse_10-2" data-name="Ellipse 10" class="cls-18" cx="26" cy="18.5" rx="26" ry="18.5" transform="translate(783 1757)"/>
          <ellipse id="Ellipse_11-2" data-name="Ellipse 11" class="cls-18" cx="21.5" cy="15" rx="21.5" ry="15" transform="translate(797 1782)"/>
          <path id="Path_21" data-name="Path 21" class="cls-21" d="M826.579,1839,859,1925.416h37.13L859,1839Z"/>
          <path id="Path_22" data-name="Path 22" class="cls-22" d="M826.579,1839l32.482,85.962,30.27.453s4.068-1.875,5.959-4.918,2.056-6.826,1.224-8.513L860.8,1839Z" transform="translate(77)"/>
        </g>
      </g>
      <path id="Subtraction_18" data-name="Subtraction 18" class="cls-3" d="M-1852.137-3867.889h-100.452a30.335,30.335,0,0,1-3.259-7.374,29.261,29.261,0,0,1-1.15-8.128,29.27,29.27,0,0,1,2.868-12.65,32.465,32.465,0,0,1,7.822-10.33,36.918,36.918,0,0,1,11.6-6.965,40.167,40.167,0,0,1,14.208-2.554c.266,0,.547,0,.861.01a43.6,43.6,0,0,1,7.166-6.607,47.1,47.1,0,0,1,8.7-5.048,49.827,49.827,0,0,1,9.925-3.223A52.219,52.219,0,0,1-1883-3931.89a51.207,51.207,0,0,1,17.278,2.955,45.082,45.082,0,0,1,6.94-5.386,47.991,47.991,0,0,1,8.076-4.08A50.983,50.983,0,0,1-1832-3941.89a51.508,51.508,0,0,1,15.575,2.38,47.835,47.835,0,0,1,13.295,6.587l-49.006,65.033Zm130.666,0h-83.085l33.377-44.292a40.07,40.07,0,0,1,8.189-2.742,42.057,42.057,0,0,1,8.99-.966,41.212,41.212,0,0,1,14.4,2.554,37.531,37.531,0,0,1,11.761,6.965,32.514,32.514,0,0,1,7.93,10.33,28.939,28.939,0,0,1,2.908,12.65,28.886,28.886,0,0,1-1.166,8.128,30.118,30.118,0,0,1-3.305,7.373Z" transform="translate(6875.759 11178.332)"/>
      <g id="Mask_Group_34" data-name="Mask Group 34" class="cls-23" transform="translate(4042.669 507.898)">
        <ellipse id="Ellipse_87" data-name="Ellipse 87" class="cls-3" cx="28.5" cy="27" rx="28.5" ry="27" transform="translate(958.33 6392.043)"/>
        <ellipse id="Ellipse_88" data-name="Ellipse 88" class="cls-3" cx="28" cy="27" rx="28" ry="27" transform="translate(990.33 6386.043)"/>
        <ellipse id="Ellipse_89" data-name="Ellipse 89" class="cls-3" cx="22.5" cy="21.5" rx="22.5" ry="21.5" transform="translate(1015.33 6403.043)"/>
        <ellipse id="Ellipse_90" data-name="Ellipse 90" class="cls-3" cx="22.5" cy="21.5" rx="22.5" ry="21.5" transform="translate(1043.33 6403.043)"/>
        <ellipse id="Ellipse_91" data-name="Ellipse 91" class="cls-3" cx="22" cy="21.5" rx="22" ry="21.5" transform="translate(942.33 6403.043)"/>
      </g>
      <path id="Path_95" data-name="Path 95" class="cls-24" d="M24,0H125c13.255,0,41.751-1.424,34.3,21.3l-23.413,81.338c-4.354,11.742-10.634,29.84-23.889,29.84H36c-13.255,0-20.476-17.59-25.116-29.84L-16.849,20.994C-23.161-1.615,10.745,0,24,0Z" transform="translate(4986.476 6924.471)"/>
      <g id="Group_126" data-name="Group 126" transform="translate(3350 611.941)">
        <path id="Subtraction_6" data-name="Subtraction 6" class="cls-2" d="M41.77,75.993a32.9,32.9,0,0,1-23-9.339,28.856,28.856,0,0,0,4.5-3.337c.369-.332.733-.676,1.082-1.023A25.975,25.975,0,0,0,59.514,62c.437.446.9.89,1.376,1.32a29.092,29.092,0,0,0,4.118,3.105A32.895,32.895,0,0,1,41.77,75.993ZM10.129,52.4v0A33.018,33.018,0,0,1,33.5,11.037,29.178,29.178,0,0,0,33.079,16c0,.819.033,1.642.1,2.446-.509.178-1.023.377-1.528.591A25.978,25.978,0,0,0,15.77,42.994a26.293,26.293,0,0,0,.385,4.494,28.987,28.987,0,0,0-4.264,3.2c-.612.551-1.2,1.129-1.76,1.719Zm63.422-.493h0c-.412-.418-.845-.83-1.285-1.226a28.624,28.624,0,0,0-4.825-3.529,26.318,26.318,0,0,0,.33-4.161A26.031,26.031,0,0,0,51.89,19.037c-.623-.264-1.263-.505-1.9-.718.059-.76.089-1.539.089-2.318a29.128,29.128,0,0,0-.434-5.064A33.05,33.05,0,0,1,73.552,51.91Z" transform="translate(1665.231 6335.007)"/>
        <path id="Polygon_10" data-name="Polygon 10" class="cls-2" d="M7.5,0,15,14H0Z" transform="translate(1710 6342) rotate(90)"/>
        <path id="Polygon_11" data-name="Polygon 11" class="cls-2" d="M7.5,0,15,14H0Z" transform="translate(1733.423 6399.66) rotate(-141)"/>
        <path id="Polygon_12" data-name="Polygon 12" class="cls-2" d="M7.5,0,15,14H0Z" transform="matrix(0.883, -0.469, 0.469, 0.883, 1674.092, 6391.841)"/>
      </g>
    </g>
    <g id="Group_136" data-name="Group 136" transform="translate(21 -8.408)">
      <g id="Mask_Group_36" data-name="Mask Group 36" class="cls-25" transform="translate(3901 1248.441)">
        <g id="Group_134" data-name="Group 134">
          <ellipse id="Ellipse_93" data-name="Ellipse 93" class="cls-26" cx="45.5" cy="72.5" rx="45.5" ry="72.5" transform="translate(1757 6006)"/>
          <ellipse id="Ellipse_94" data-name="Ellipse 94" class="cls-6" cx="39" cy="44.5" rx="39" ry="44.5" transform="matrix(0.995, 0.105, -0.105, 0.995, 1767.865, 5924.167)"/>
          <path id="Subtraction_17" data-name="Subtraction 17" class="cls-27" d="M56,91a34.592,34.592,0,0,1-12.419-2.3C53,87.438,61.7,82.284,68.059,74.181a45.793,45.793,0,0,0,7.289-13.517A49.858,49.858,0,0,0,78,44.5,50.194,50.194,0,0,0,76.02,30.461a46.862,46.862,0,0,0-5.516-12.2A42.4,42.4,0,0,0,62.09,8.634,37.4,37.4,0,0,0,51.419,2.3,34.7,34.7,0,0,1,71.181,5.5a39.024,39.024,0,0,1,12.4,9.537,45.156,45.156,0,0,1,8.358,14.145,50.48,50.48,0,0,1,0,34.643,45.155,45.155,0,0,1-8.358,14.145,39.025,39.025,0,0,1-12.4,9.537A34.666,34.666,0,0,1,56,91Z" transform="matrix(0.995, 0.105, -0.105, 0.995, 1751.167, 5920.401)"/>
          <g id="Mask_Group_35" data-name="Mask Group 35" class="cls-28" transform="matrix(0.995, 0.105, -0.105, 0.995, 634.168, -155.642)">
            <g id="Group_133" data-name="Group 133" transform="translate(1 10)">
              <path id="Path_97" data-name="Path 97" class="cls-29" d="M0,36Z" transform="translate(1724 5888)"/>
              <path id="Path_98" data-name="Path 98" class="cls-29" d="M0,36Z" transform="translate(1779 5877)"/>
            </g>
          </g>
        </g>
      </g>
      <path id="Path_99" data-name="Path 99" class="cls-30" d="M5662.76,7223.076c.3.106,8.358-18.492,22.8-23.957,8.882-3.361,44.45,17.9,44.45,17.9s-.625-5.007-.886-6.609a38.53,38.53,0,0,0-2.42-6.036s4.616.221,9.213,4.733a48.879,48.879,0,0,1,7.8,10.617,39.057,39.057,0,0,0,1.126-8.034,19.087,19.087,0,0,0-1.126-6.425l8.333,3.557s-5.6-15.644-15.108-23.2-18.078-8.886-18.078-8.886l10.261-4.136s-14.28-5.625-22.579-4.854-16.953,4.854-16.953,4.854a29.641,29.641,0,0,0-7.585-3.082,18.908,18.908,0,0,0-7.132,0l4.749,7.218s-4.748,2.576-10.9,10.6-13.7,21.491-13.7,21.491l7.733-3.557S5662.461,7222.969,5662.76,7223.076Z"/>
    </g>
  </g>
</svg>
