<svg xmlns="http://www.w3.org/2000/svg" width="385.986" height="452.191" viewBox="0 0 385.986 452.191">
  <defs>
    <style>
      .cls-1 {
        fill: #146900;
      }

      .cls-2 {
        fill: #aad137;
      }

      .cls-3 {
        fill: #fff;
        opacity: 0.2;
      }
    </style>
  </defs>
  <g id="Group_90" data-name="Group 90" transform="translate(-3675.366 -11201.251)">
    <path id="Path_58" data-name="Path 58" class="cls-1" d="M3675.366,11614.871v-138.625l13.762-73.932h23.253l12.576,73.932h12.328v-51.213h9.751v51.213l24.855,34.773,18.907-19.3h29.285v-15.473h41.988v15.473s55.525-12.254,100.885,0,80.556,49.018,80.556,49.018v74.135Z" transform="translate(0 38.571)"/>
    <g id="Group_85" data-name="Group 85" transform="translate(3724.134 11247.953) rotate(16)">
      <path id="Path_59" data-name="Path 59" class="cls-2" d="M3690.882,11419.778c-10.415-34.65-7.6-82.519,0-99.979s41.838-37.512,50.028-46.776c15.659-17.714,12.608-30.171,12.608-30.171s33.1,30.8,30.953,65.469-32.329,65.1-39.535,73.2c-15.3,17.207-34.69,34.907-34.69,34.907s.727-24.356,7.363-48.05,10.243-34.435,10.243-34.435-9.365,9.9-20.843,34.435S3690.882,11419.778,3690.882,11419.778Z" transform="translate(-3684.087 -11242.853)"/>
      <path id="Path_60" data-name="Path 60" class="cls-3" d="M3692.76,11349.6s12.272-26.919,26.867-46.373a160.351,160.351,0,0,1,31.512-31.445s3.654,1.494,3.228,19.742-4.932,53.249-4.932,53.249-1.711-29-3.677-41.546-4.184-8.624-4.184-8.624-1.227-.114-14.623,13.544S3692.76,11349.6,3692.76,11349.6Z" transform="translate(-3682.605 -11237.913)"/>
    </g>
    <g id="Group_86" data-name="Group 86" transform="matrix(0.643, 0.766, -0.766, 0.643, 3907.79, 11266.12)">
      <path id="Path_59-2" data-name="Path 59" class="cls-2" d="M3.674,95.653C-1.957,76.92-.433,51.04,3.674,41.6S26.293,21.32,30.721,16.312C39.187,6.734,37.537,0,37.537,0S55.432,16.652,54.272,35.4,36.794,70.589,32.9,74.971c-8.272,9.3-18.754,18.872-18.754,18.872a123.381,123.381,0,0,1,3.98-25.979c3.588-12.809,5.538-18.616,5.538-18.616S18.6,54.6,12.393,67.864A125.223,125.223,0,0,0,3.674,95.653Z"/>
      <path id="Path_60-2" data-name="Path 60" class="cls-3" d="M0,42.071S6.634,27.519,14.524,17A86.681,86.681,0,0,1,31.562,0s1.975.807,1.745,10.673S30.64,39.463,30.64,39.463,29.715,23.782,28.652,17s-2.262-4.662-2.262-4.662-.664-.062-7.906,7.323S0,42.071,0,42.071Z" transform="translate(5.49 18.31)"/>
    </g>
    <g id="Group_87" data-name="Group 87" transform="matrix(0.695, 0.719, -0.719, 0.695, 3855.21, 11201.251)">
      <path id="Path_59-3" data-name="Path 59" class="cls-2" d="M3.252,84.666c-4.984-16.581-3.635-39.488,0-47.844s20.021-17.951,23.94-22.385C34.686,5.96,33.226,0,33.226,0S49.065,14.739,48.038,31.329s-15.47,31.152-18.919,35.03c-7.322,8.235-16.6,16.705-16.6,16.705A109.211,109.211,0,0,1,16.042,60.07c3.176-11.339,4.9-16.479,4.9-16.479s-4.481,4.74-9.974,16.479A110.832,110.832,0,0,0,3.252,84.666Z"/>
      <path id="Path_60-3" data-name="Path 60" class="cls-3" d="M0,37.24S5.872,24.357,12.856,15.048A76.749,76.749,0,0,1,27.937,0s1.749.714,1.544,9.447-2.36,25.482-2.36,25.482-.819-13.88-1.759-19.883-2-4.127-2-4.127-.587-.054-7,6.482S0,37.24,0,37.24Z" transform="translate(4.859 16.207)"/>
    </g>
    <g id="Group_88" data-name="Group 88" transform="matrix(0.719, 0.695, -0.695, 0.719, 3947.59, 11202.558)">
      <path id="Path_59-4" data-name="Path 59" class="cls-2" d="M2.81,73.15C-1.5,58.825-.332,39.033,2.81,31.813S20.108,16.3,23.494,12.473C29.968,5.149,28.707,0,28.707,0S42.392,12.733,41.5,27.068,28.139,53.982,25.159,57.334c-6.326,7.114-14.343,14.433-14.343,14.433A94.348,94.348,0,0,1,13.86,51.9C16.6,42.1,18.1,37.662,18.1,37.662s-3.872,4.1-8.618,14.237A95.8,95.8,0,0,0,2.81,73.15Z"/>
      <path id="Path_60-4" data-name="Path 60" class="cls-3" d="M0,32.175S5.074,21.045,11.108,13A66.272,66.272,0,0,1,24.137,0s1.511.617,1.334,8.162S23.432,30.18,23.432,30.18,22.725,18.188,21.912,13s-1.73-3.566-1.73-3.566-.507-.047-6.045,5.6S0,32.175,0,32.175Z" transform="translate(4.199 14.003)"/>
    </g>
    <g id="Group_89" data-name="Group 89" transform="translate(4038.12 11205.623) rotate(56)">
      <path id="Path_59-5" data-name="Path 59" class="cls-2" d="M2.81,73.15C-1.5,58.825-.332,39.033,2.81,31.813S20.108,16.3,23.494,12.473C29.968,5.149,28.707,0,28.707,0S42.392,12.733,41.5,27.068,28.139,53.982,25.159,57.334c-6.326,7.114-14.343,14.433-14.343,14.433A94.348,94.348,0,0,1,13.86,51.9C16.6,42.1,18.1,37.662,18.1,37.662s-3.872,4.1-8.618,14.237A95.8,95.8,0,0,0,2.81,73.15Z"/>
      <path id="Path_60-5" data-name="Path 60" class="cls-3" d="M0,32.175S5.074,21.045,11.108,13A66.272,66.272,0,0,1,24.137,0s1.511.617,1.334,8.162S23.432,30.18,23.432,30.18,22.725,18.188,21.912,13s-1.73-3.566-1.73-3.566-.507-.047-6.045,5.6S0,32.175,0,32.175Z" transform="translate(4.199 14.003)"/>
    </g>
  </g>
</svg>
