<svg xmlns="http://www.w3.org/2000/svg" width="25.583" height="22.983" viewBox="0 0 25.583 22.983">
  <defs>
    <style>
      .cls-1 {
        fill: #aad137;
      }

      .cls-2 {
        fill: #fff;
        opacity: 0.2;
      }
    </style>
  </defs>
  <g id="Group_92" data-name="Group 92" transform="translate(7301.166 -9325.783) rotate(56)">
    <path id="Path_59" data-name="Path 59" class="cls-1" d="M3684.944,11265.166c-1.313-4.37-.958-10.406,0-12.609s5.276-4.73,6.309-5.9c1.975-2.234,1.59-3.8,1.59-3.8s4.174,3.884,3.9,8.256-4.077,8.209-4.986,9.232c-1.93,2.17-4.375,4.4-4.375,4.4a28.793,28.793,0,0,1,.929-6.061c.837-2.988,1.292-4.342,1.292-4.342a17.777,17.777,0,0,0-2.628,4.342A29.217,29.217,0,0,0,3684.944,11265.166Z" transform="translate(-25.078 9.665)"/>
    <path id="Path_60" data-name="Path 60" class="cls-2" d="M3692.76,11285.252a53.8,53.8,0,0,1,4.011-8.028,25.973,25.973,0,0,1,4.7-5.444s.546.26.482,3.418-.736,9.219-.736,9.219-.255-5.021-.549-7.192-.625-1.493-.625-1.493-.183-.02-2.183,2.346S3692.76,11285.252,3692.76,11285.252Z" transform="translate(-33.07 -16.523)"/>
  </g>
</svg>
