<svg xmlns="http://www.w3.org/2000/svg" width="32.674" height="24.755" viewBox="0 0 32.674 24.755">
  <defs>
    <style>
      .cls-1 {
        fill: #00a859;
        stroke: #00a859;
      }
    </style>
  </defs>
  <path id="envelope" class="cls-1" d="M0,5.959A3.959,3.959,0,0,1,3.959,2H27.715a3.959,3.959,0,0,1,3.959,3.959V21.8a3.959,3.959,0,0,1-3.959,3.959H3.959A3.959,3.959,0,0,1,0,21.8ZM3.959,3.98a1.98,1.98,0,0,0-1.98,1.98v.43L15.837,14.7,29.694,6.389v-.43a1.98,1.98,0,0,0-1.98-1.98ZM29.694,8.7l-9.419,5.652,9.419,5.693V8.7Zm-.067,13.616L18.353,15.5l-2.516,1.51L13.319,15.5,2.047,22.311a1.98,1.98,0,0,0,1.912,1.465H27.715A1.98,1.98,0,0,0,29.627,22.313ZM1.98,20.042,11.4,14.349,1.98,8.7V20.04Z" transform="translate(0.5 -1.5)"/>
</svg>
