<svg xmlns="http://www.w3.org/2000/svg" xmlns:xlink="http://www.w3.org/1999/xlink" width="444" height="467.534" viewBox="0 0 444 467.534">
  <defs>
    <style>
      .cls-1, .cls-6 {
        fill: #fff;
      }

      .cls-1 {
        opacity: 0.5;
      }

      .cls-2 {
        fill: rgba(0,0,0,0.1);
      }

      .cls-3 {
        clip-path: url(#clip-path);
      }

      .cls-4 {
        fill: #53d7e8;
      }

      .cls-5 {
        fill: #00a859;
      }

      .cls-6 {
        opacity: 0.3;
      }

      .cls-7 {
        fill: #4dc28b;
      }
    </style>
    <clipPath id="clip-path">
      <circle id="mundo" class="cls-1" cx="222" cy="222" r="222" transform="translate(3550 5987)"/>
    </clipPath>
  </defs>
  <g id="Group_74" data-name="Group 74" transform="translate(-3479 -8849.466)">
    <ellipse id="Ellipse_52" data-name="Ellipse 52" class="cls-2" cx="197" cy="31.5" rx="197" ry="31.5" transform="translate(3504 9254)"/>
    <g id="Mask_Group_22" data-name="Mask Group 22" class="cls-3" transform="translate(-71 2862.466)">
      <circle id="mundo-2" data-name="mundo" class="cls-4" cx="222" cy="222" r="222" transform="translate(3550 5987)"/>
      <path id="Path_49" data-name="Path 49" class="cls-5" d="M3739.3,6011.089l15.867,23.206-15.867,41.741V6138.3l-45.589,34.829H3675.3v-51.635l-30.143-23.017-28.589,10.783H3588.4l-34.516-33.222,166.912-102.21Z" transform="translate(4.827 -16.365)"/>
      <path id="Path_50" data-name="Path 50" class="cls-5" d="M3570.257,6054.882l17.129,6.454h10.861v-12.713h10.875l9.187,6.26,12.248,12.846-21.435,6.146-4.313,8.918v10.938l9.293,5.774,10.318,2.349,2.806,14.883h10.415l-7.083-17.232,7.083-18.891,10.073,2.178,11.487,21.738,19,4.666v9.7l-19,7-6,12.53-15.556,9.623-2.271,21.535-8.144,6.652-16.1-6.652-12.878,8.639,3.09,7.256h23.083l6.137,10.873v6.716l17.156-3.863h19.663l14.231,18.886,12.889,7.364h13.7v22.392h-83.774l-6.111-8.518v-10.953l14.244-10.286,5.088-7.262h-13.221L3614.1,6199.2l-12.765,3.863-13.951-3.863-9.562-13.726-7.567-18.593-12.87,2.7-4.479-21.535,4.479-15.6v-15.709l3.032-23.006,9.838-15.209-3.44-12.806Z" transform="translate(3.613 76.561)"/>
      <path id="Path_51" data-name="Path 51" class="cls-5" d="M3632.23,6202.068l11.792-16.459,10.5-5.737,10-10.943h18.37l5.189,5.184,11.042,8.915,14.614-3.156,11.52-1.469,8.686,4.625,1.58-14.1-3.024-11.488,10.459-5,5.044-8-6.893-5.942-12.975,9.979-8.634,8.968-9.437,2.93-10.94-2.93-4.953-5-11.278,2.806-6.819,5.127h-14.586l-6.96-7.933v-6.222l15.417-12.3,12.949-2.851,5.189-5.991h24.115l4.894-7.393,6.49-8.107,10.363-7.523-8.686-1.617-11.52,1.617-1.54-5.349v-6.67l4.894-9.71-7.028,3.447-7.41,6.263-9.9,10.4h-6.757l-9.928-5.6,5.241-8.532,11.444-5.977,6.365-10.683,9.175-5.926h8.793l11.043,1.706,10.444,4.22,6.408,6.662-3.877,10v8.532h6.893l9.019-11.062,9.839-3.447,12.087-6.574,6.284-8.329,10.375-1.706,12.463-4.684,4.972-19.73h36.789l9.292,5.981,22.755-5.981,43.29,140.575-47.967,71.744-17.213-17.123-12.131-19.871-11.817-10.436v-10.521h-7.4l-16.744,14.48-11.04-1.822-13.977-6.226v-9.74l-7.927-7.329-8.71,1.455h-6.174l-1.865,5.875,1.865,9.74h-9.15l-8.369,6.226-5.436-6.226-2.53-8.271-3.055-1.47-1.58,1.47,1.58,10.942,5.586,9.208-2.53,4.265h11.536l13.948,2.674v7.373l-13.948,6.159-2.113,6.851-9.424,6.569-3.055,7.683,1.382,12.179-2.962,18.266-8.686,10.6-4.164,15.386-11.03,5.586-8.71-5.586v-18.887l-9.743-8.813V6269.8l-3.529-9.649,3.529-15.648-5.325-12.057-13.961-6.159-17.8,8.206-10.5-2.047-9.252-13.531-2.539-10.77Z" transform="translate(102.165 64.975)"/>
      <circle id="sombra" class="cls-6" cx="222" cy="222" r="222" transform="translate(3471.847 5987)"/>
      <path id="Path_52" data-name="Path 52" class="cls-7" d="M3584.927,6151.032l14.31,14.438,13.269,7.862,2.249,10.847,3.421,9.65,12.135,19.691,13.273,8.03,9.559,9.222,7.488,1.022,2.689-7.426-5.507-8.352,1.077-9.773,2.882-5.2h3.581l3.59-7.211-1.735-10.971,1.735-9.526-1.735-7.862,1.735-11.811-1.735-2.628,1.735-10.264-1.735-11.825-5.437-2.4-7.252,2.4Z" transform="translate(43.394 173.375)"/>
    </g>
  </g>
</svg>
