<svg xmlns="http://www.w3.org/2000/svg" xmlns:xlink="http://www.w3.org/1999/xlink" width="108.025" height="142.778" viewBox="0 0 108.025 142.778">
  <defs>
    <style>
      .cls-1 {
        fill: #fff;
        stroke: #707070;
      }

      .cls-2 {
        fill: #ff6200;
      }

      .cls-3 {
        fill: rgba(255,255,255,0.8);
        font-size: 20px;
        font-family: Poppins-Regular, Poppins;
      }

      .cls-4 {
        stroke: none;
      }

      .cls-5 {
        fill: none;
      }

      .cls-6 {
        filter: url(#Icon_awesome-html5);
      }
    </style>
    <filter id="Icon_awesome-html5" x="0" y="0" width="108.025" height="123.029" filterUnits="userSpaceOnUse">
      <feOffset dy="3" input="SourceAlpha"/>
      <feGaussianBlur stdDeviation="3" result="blur"/>
      <feFlood flood-opacity="0.161"/>
      <feComposite operator="in" in2="blur"/>
      <feComposite in="SourceGraphic"/>
    </filter>
  </defs>
  <g id="_1" data-name="1" transform="translate(-32.514 -133.222)">
    <g id="HTML5" transform="translate(41.514 139.222)">
      <g id="Rectangle_15" data-name="Rectangle 15" class="cls-1" transform="translate(12.378 12.378)">
        <rect class="cls-4" width="67.519" height="74.271"/>
        <rect class="cls-5" x="0.5" y="0.5" width="66.519" height="73.271"/>
      </g>
      <g class="cls-6" transform="matrix(1, 0, 0, 1, -9, -6)">
        <path id="Icon_awesome-html5-2" data-name="Icon awesome-html5" class="cls-2" d="M0,2.25,8.182,95.041,44.9,107.279,81.843,95.041,90.025,2.25ZM72.254,32.235H29.164l.961,11.581H71.293L68.1,78.607l-22.952,6.33v.07H44.9l-23.139-6.4L20.349,60.837H31.532l.821,8.932,12.543,3.4,12.589-3.4,1.407-14.582H19.763l-3-34.134H73.286L72.254,32.235Z" transform="translate(9 3.75)"/>
      </g>
    </g>
    <text id="HTML5-2" data-name="HTML5" class="cls-3" transform="translate(117.606 269)"><tspan x="-63.08" y="0">HTML5</tspan></text>
  </g>
</svg>
