<svg xmlns="http://www.w3.org/2000/svg" xmlns:xlink="http://www.w3.org/1999/xlink" width="108.025" height="123.648" viewBox="0 0 108.025 123.648">
  <defs>
    <style>
      .cls-1 {
        fill: #fff;
        opacity: 0.5;
      }

      .cls-2 {
        fill: #ff90f2;
      }

      .cls-3 {
        fill: rgba(255,255,255,0.8);
        font-size: 20px;
        font-family: Poppins-Regular, Poppins;
      }

      .cls-4 {
        filter: url(#Sass);
      }
    </style>
    <filter id="Sass" x="0" y="0" width="108.025" height="85.525" filterUnits="userSpaceOnUse">
      <feOffset dy="3" input="SourceAlpha"/>
      <feGaussianBlur stdDeviation="3" result="blur"/>
      <feFlood flood-opacity="0.161"/>
      <feComposite operator="in" in2="blur"/>
      <feComposite in="SourceGraphic"/>
    </filter>
  </defs>
  <g id="_3" data-name="3" transform="translate(-410.66 -152.352)">
    <path id="Sass-2" data-name="Sass" class="cls-1" d="M42.458,52.175C42.416,52.26,42.374,52.327,42.458,52.175ZM77.5,39.937a18.45,18.45,0,0,0-8.159,1.9A17.325,17.325,0,0,1,67.515,37.6a11.3,11.3,0,0,1-.155-3.559,29.97,29.97,0,0,1,1.069-3.826c-.014-.155-.2-.928-2.012-.942s-3.376.352-3.557.83a17.278,17.278,0,0,0-.746,2.687c-.324,1.646-3.628,7.526-5.5,10.592a10.922,10.922,0,0,1-1.252-3.095,11.3,11.3,0,0,1-.155-3.559A29.971,29.971,0,0,1,56.279,32.9c-.014-.155-.2-.928-2.01-.942s-3.376.352-3.559.83-.38,1.6-.746,2.687S45.2,46.352,44.045,48.9c-.591,1.294-1.1,2.335-1.463,3.038-.056.113-.1.183-.127.239.042-.07.07-.141.07-.113-.309.6-.492.942-.492.942v.014c-.239.45-.506.858-.633.858a5.835,5.835,0,0,1,.042-2.8c.661-3.4,2.223-8.693,2.208-8.876-.014-.1.3-1.013-1.027-1.505a1.656,1.656,0,0,0-1.857.309c-.113,0-.2.281-.2.281s1.421-5.964-2.728-5.964c-2.588,0-6.189,2.841-7.959,5.416-1.111.6-3.517,1.913-6.049,3.306-.971.535-1.969,1.083-2.912,1.6-.07-.07-.127-.141-.2-.211C15.692,40.064,6.4,36.266,6.791,29.05c.141-2.63,1.055-9.537,17.874-17.921,13.785-6.864,24.806-4.98,26.7-.788,2.729,5.978-5.892,17.1-20.208,18.709-5.456.6-8.325-1.505-9.042-2.293-.746-.83-.858-.872-1.139-.717-.464.253-.169.985,0,1.421a8.476,8.476,0,0,0,5.175,4.065c2.63.858,9.028,1.336,16.763-1.66,8.69-3.348,15.455-12.674,13.472-20.481C54.37,1.451,41.215-1.151,28.776,3.266,21.364,5.9,13.349,10.032,7.583,15.419.734,21.834-.362,27.418.088,29.753,1.691,38.038,13.11,43.44,17.68,47.435c-.225.127-.436.239-.633.352-2.291,1.139-11,5.7-13.176,10.508-2.462,5.458.408,9.368,2.291,9.9,5.878,1.632,11.9-1.308,15.131-6.133s2.841-11.127,1.35-14c-.014-.042-.042-.07-.056-.113.591-.352,1.2-.7,1.8-1.055,1.166-.689,2.306-1.322,3.3-1.871a21.849,21.849,0,0,0-1.182,5.992c-.253,3.095,1.027,7.1,2.687,8.679a2.952,2.952,0,0,0,2.165.7c1.941,0,2.813-1.6,3.783-3.517,1.2-2.335,2.251-5.05,2.251-5.05s-1.322,7.343,2.293,7.343c1.321,0,2.643-1.7,3.235-2.574v.014s.028-.056.1-.169c.141-.211.211-.338.211-.338v-.042c.535-.914,1.7-3.01,3.459-6.471,2.279-4.473,4.458-10.058,4.458-10.058a28.308,28.308,0,0,0,.872,3.629,33.976,33.976,0,0,0,1.885,4.22c-.535.731-.858,1.153-.858,1.153a.044.044,0,0,0,.014.028c-.422.563-.9,1.168-1.393,1.758a49.649,49.649,0,0,0-4.22,5.289,1.437,1.437,0,0,0,.394,1.927,3.419,3.419,0,0,0,2.207.352,9.755,9.755,0,0,0,3.306-.76A11.563,11.563,0,0,0,56.2,55.65a6.35,6.35,0,0,0,2.729-5.6A11.65,11.65,0,0,0,57.9,46.084c.155-.225.324-.464.478-.7a74.778,74.778,0,0,0,4.936-8.527,28.307,28.307,0,0,0,.872,3.629,24.813,24.813,0,0,0,1.6,3.615,15.462,15.462,0,0,0-4.8,6.2c-1.041,3-.225,4.347,1.308,4.656a4.72,4.72,0,0,0,2.405-.492A11.177,11.177,0,0,0,67.743,52.9C69.5,51.61,71.2,49.8,71.089,47.333a10.465,10.465,0,0,0-.76-3.292,17.17,17.17,0,0,1,8.734-1.013c7.832.914,9.366,5.809,9.07,7.849a5.2,5.2,0,0,1-2.49,3.517c-.549.338-.717.464-.675.717.07.366.324.352.788.267a6.111,6.111,0,0,0,4.261-5.444c.225-4.783-4.373-10.044-12.519-10ZM17.131,60.292c-2.587,2.827-6.216,3.9-7.776,3-1.674-.973-1.013-5.134,2.179-8.147a41.678,41.678,0,0,1,6.1-4.558c.38-.225.928-.563,1.6-.971.113-.07.169-.1.169-.1.127-.084.267-.155.408-.239a11.227,11.227,0,0,1-2.687,11.014Zm18.9-12.857c-.9,2.208-2.8,7.835-3.951,7.54-.985-.253-1.59-4.544-.2-8.763a19.4,19.4,0,0,1,3.081-5.641c1.419-1.59,2.981-2.1,3.346-1.463C38.8,39.937,36.594,46.056,36.031,47.435ZM51.645,54.89c-.38.2-.731.324-.9.225-.127-.07.155-.338.155-.338s1.955-2.1,2.729-3.052c.45-.563.971-1.224,1.532-1.955,0,.07.014.141.014.225-.018,2.518-2.436,4.22-3.534,4.9Zm12.038-2.743c-.281-.2-.239-.858.7-2.912a10.933,10.933,0,0,1,2.673-3.446,5.089,5.089,0,0,1,.267,1.519,4.959,4.959,0,0,1-3.642,4.839Z" transform="translate(420.66 158.227)"/>
    <g class="cls-4" transform="matrix(1, 0, 0, 1, 410.66, 152.35)">
      <path id="Sass-3" data-name="Sass" class="cls-2" d="M42.458,52.175C42.416,52.26,42.374,52.327,42.458,52.175ZM77.5,39.937a18.45,18.45,0,0,0-8.159,1.9A17.325,17.325,0,0,1,67.515,37.6a11.3,11.3,0,0,1-.155-3.559,29.97,29.97,0,0,1,1.069-3.826c-.014-.155-.2-.928-2.012-.942s-3.376.352-3.557.83a17.278,17.278,0,0,0-.746,2.687c-.324,1.646-3.628,7.526-5.5,10.592a10.922,10.922,0,0,1-1.252-3.095,11.3,11.3,0,0,1-.155-3.559A29.971,29.971,0,0,1,56.279,32.9c-.014-.155-.2-.928-2.01-.942s-3.376.352-3.559.83-.38,1.6-.746,2.687S45.2,46.352,44.045,48.9c-.591,1.294-1.1,2.335-1.463,3.038-.056.113-.1.183-.127.239.042-.07.07-.141.07-.113-.309.6-.492.942-.492.942v.014c-.239.45-.506.858-.633.858a5.835,5.835,0,0,1,.042-2.8c.661-3.4,2.223-8.693,2.208-8.876-.014-.1.3-1.013-1.027-1.505a1.656,1.656,0,0,0-1.857.309c-.113,0-.2.281-.2.281s1.421-5.964-2.728-5.964c-2.588,0-6.189,2.841-7.959,5.416-1.111.6-3.517,1.913-6.049,3.306-.971.535-1.969,1.083-2.912,1.6-.07-.07-.127-.141-.2-.211C15.692,40.064,6.4,36.266,6.791,29.05c.141-2.63,1.055-9.537,17.874-17.921,13.785-6.864,24.806-4.98,26.7-.788,2.729,5.978-5.892,17.1-20.208,18.709-5.456.6-8.325-1.505-9.042-2.293-.746-.83-.858-.872-1.139-.717-.464.253-.169.985,0,1.421a8.476,8.476,0,0,0,5.175,4.065c2.63.858,9.028,1.336,16.763-1.66,8.69-3.348,15.455-12.674,13.472-20.481C54.37,1.451,41.215-1.151,28.776,3.266,21.364,5.9,13.349,10.032,7.583,15.419.734,21.834-.362,27.418.088,29.753,1.691,38.038,13.11,43.44,17.68,47.435c-.225.127-.436.239-.633.352-2.291,1.139-11,5.7-13.176,10.508-2.462,5.458.408,9.368,2.291,9.9,5.878,1.632,11.9-1.308,15.131-6.133s2.841-11.127,1.35-14c-.014-.042-.042-.07-.056-.113.591-.352,1.2-.7,1.8-1.055,1.166-.689,2.306-1.322,3.3-1.871a21.849,21.849,0,0,0-1.182,5.992c-.253,3.095,1.027,7.1,2.687,8.679a2.952,2.952,0,0,0,2.165.7c1.941,0,2.813-1.6,3.783-3.517,1.2-2.335,2.251-5.05,2.251-5.05s-1.322,7.343,2.293,7.343c1.321,0,2.643-1.7,3.235-2.574v.014s.028-.056.1-.169c.141-.211.211-.338.211-.338v-.042c.535-.914,1.7-3.01,3.459-6.471,2.279-4.473,4.458-10.058,4.458-10.058a28.308,28.308,0,0,0,.872,3.629,33.976,33.976,0,0,0,1.885,4.22c-.535.731-.858,1.153-.858,1.153a.044.044,0,0,0,.014.028c-.422.563-.9,1.168-1.393,1.758a49.649,49.649,0,0,0-4.22,5.289,1.437,1.437,0,0,0,.394,1.927,3.419,3.419,0,0,0,2.207.352,9.755,9.755,0,0,0,3.306-.76A11.563,11.563,0,0,0,56.2,55.65a6.35,6.35,0,0,0,2.729-5.6A11.65,11.65,0,0,0,57.9,46.084c.155-.225.324-.464.478-.7a74.778,74.778,0,0,0,4.936-8.527,28.307,28.307,0,0,0,.872,3.629,24.813,24.813,0,0,0,1.6,3.615,15.462,15.462,0,0,0-4.8,6.2c-1.041,3-.225,4.347,1.308,4.656a4.72,4.72,0,0,0,2.405-.492A11.177,11.177,0,0,0,67.743,52.9C69.5,51.61,71.2,49.8,71.089,47.333a10.465,10.465,0,0,0-.76-3.292,17.17,17.17,0,0,1,8.734-1.013c7.832.914,9.366,5.809,9.07,7.849a5.2,5.2,0,0,1-2.49,3.517c-.549.338-.717.464-.675.717.07.366.324.352.788.267a6.111,6.111,0,0,0,4.261-5.444c.225-4.783-4.373-10.044-12.519-10ZM17.131,60.292c-2.587,2.827-6.216,3.9-7.776,3-1.674-.973-1.013-5.134,2.179-8.147a41.678,41.678,0,0,1,6.1-4.558c.38-.225.928-.563,1.6-.971.113-.07.169-.1.169-.1.127-.084.267-.155.408-.239a11.227,11.227,0,0,1-2.687,11.014Zm18.9-12.857c-.9,2.208-2.8,7.835-3.951,7.54-.985-.253-1.59-4.544-.2-8.763a19.4,19.4,0,0,1,3.081-5.641c1.419-1.59,2.981-2.1,3.346-1.463C38.8,39.937,36.594,46.056,36.031,47.435ZM51.645,54.89c-.38.2-.731.324-.9.225-.127-.07.155-.338.155-.338s1.955-2.1,2.729-3.052c.45-.563.971-1.224,1.532-1.955,0,.07.014.141.014.225-.018,2.518-2.436,4.22-3.534,4.9Zm12.038-2.743c-.281-.2-.239-.858.7-2.912a10.933,10.933,0,0,1,2.673-3.446,5.089,5.089,0,0,1,.267,1.519,4.959,4.959,0,0,1-3.642,4.839Z" transform="translate(9 4.87)"/>
    </g>
    <text id="Sass-4" data-name="Sass" class="cls-3" transform="translate(487.606 269)"><tspan x="-46.14" y="0">Sass</tspan></text>
  </g>
</svg>
