<svg xmlns="http://www.w3.org/2000/svg" xmlns:xlink="http://www.w3.org/1999/xlink" width="108.025" height="128.564" viewBox="0 0 108.025 128.564">
  <defs>
    <style>
      .cls-1 {
        stroke: #707070;
      }

      .cls-2 {
        fill: #ffeb00;
      }

      .cls-3 {
        fill: rgba(255,255,255,0.8);
        font-size: 20px;
        font-family: Poppins-Regular, Poppins;
      }

      .cls-4 {
        stroke: none;
      }

      .cls-5 {
        fill: none;
      }

      .cls-6 {
        filter: url(#Icon_simple-javascript);
      }
    </style>
    <filter id="Icon_simple-javascript" x="0" y="0" width="108.025" height="108.025" filterUnits="userSpaceOnUse">
      <feOffset dy="3" input="SourceAlpha"/>
      <feGaussianBlur stdDeviation="3" result="blur"/>
      <feFlood flood-opacity="0.161"/>
      <feComposite operator="in" in2="blur"/>
      <feComposite in="SourceGraphic"/>
    </filter>
  </defs>
  <g id="_4" data-name="4" transform="translate(-32.514 -307.436)">
    <g id="Javascript" transform="translate(41.514 313.436)">
      <g id="Rectangle_18" data-name="Rectangle 18" class="cls-1" transform="translate(23.745 22.506)">
        <rect class="cls-4" width="60.767" height="61.892"/>
        <rect class="cls-5" x="0.5" y="0.5" width="59.767" height="60.892"/>
      </g>
      <g class="cls-6" transform="matrix(1, 0, 0, 1, -9, -6)">
        <path id="Icon_simple-javascript-2" data-name="Icon simple-javascript" class="cls-2" d="M0,0H90.025V90.025H0ZM82.65,68.554C81.994,64.447,79.32,61,71.386,57.777c-2.761-1.294-5.829-2.194-6.741-4.276a4.429,4.429,0,0,1-.173-2.644c.563-2.423,3.432-3.151,5.683-2.476a6.1,6.1,0,0,1,3.661,3.376c3.879-2.536,3.879-2.536,6.583-4.22a15.482,15.482,0,0,0-2.2-2.926c-2.363-2.644-5.51-3.995-10.63-3.879l-2.644.334a12.092,12.092,0,0,0-6.414,3.77c-4.276,4.843-3.042,13.282,2.134,16.771,5.12,3.826,12.607,4.666,13.564,8.271.9,4.389-3.263,5.8-7.375,5.289-3.042-.675-4.726-2.2-6.583-5.011L53.389,74.1a15.169,15.169,0,0,0,3.038,4.16c6.527,6.587,22.844,6.249,25.773-3.766a12.7,12.7,0,0,0,.278-6.189l.173.251Zm-33.7-27.176H40.523c0,7.27-.034,14.494-.034,21.775,0,4.621.236,8.864-.518,10.169-1.238,2.584-4.426,2.254-5.874,1.8a7.238,7.238,0,0,1-3.113-3.207,3.218,3.218,0,0,0-.476-.735L23.662,75.4a13.268,13.268,0,0,0,4.966,5.69,16.508,16.508,0,0,0,12.03,1.519,10.536,10.536,0,0,0,6.793-5.293c1.913-3.488,1.508-7.765,1.489-12.551.045-7.7,0-15.413,0-23.178l.015-.21Z" transform="translate(9 6)"/>
      </g>
    </g>
    <text id="Javascript-2" data-name="Javascript" class="cls-3" transform="translate(138.606 429)"><tspan x="-104.62" y="0">Javascript</tspan></text>
  </g>
</svg>
