<svg xmlns="http://www.w3.org/2000/svg" xmlns:xlink="http://www.w3.org/1999/xlink" width="108.025" height="128.598" viewBox="0 0 108.025 128.598">
  <defs>
    <style>
      .cls-1 {
        fill: #fff;
        opacity: 0.2;
      }

      .cls-2 {
        fill: #00a7ff;
      }

      .cls-3 {
        fill: rgba(255,255,255,0.8);
        font-size: 20px;
        font-family: Poppins-Regular, Poppins;
      }

      .cls-4 {
        filter: url(#jquery);
      }
    </style>
    <filter id="jquery" x="0" y="0" width="108.025" height="104.708" filterUnits="userSpaceOnUse">
      <feOffset dy="3" input="SourceAlpha"/>
      <feGaussianBlur stdDeviation="3" result="blur"/>
      <feFlood flood-opacity="0.161"/>
      <feComposite operator="in" in2="blur"/>
      <feComposite in="SourceGraphic"/>
    </filter>
  </defs>
  <g id="_5" data-name="5" transform="translate(-221.769 -307.402)">
    <g class="cls-4" transform="matrix(1, 0, 0, 1, 221.77, 307.4)">
      <path id="jquery-2" data-name="jquery" class="cls-1" d="M5.737,21.039c-7.973,11.455-6.986,26.354-.89,38.518.139.3.293.578.443.86a6.056,6.056,0,0,0,.289.56,3.17,3.17,0,0,0,.177.312c.1.2.2.383.3.571l.59,1c.109.184.214.364.338.548.207.353.451.7.665,1.055.1.146.188.293.3.439q.546.858,1.164,1.668c.293.4.586.792.9,1.183.1.143.214.285.319.428l.83,1.01c.1.116.2.252.312.372.368.443.759.875,1.149,1.311,0,.008.011.015.019.026a11.756,11.756,0,0,0,1.592,1.652c.3.308.6.616.92.916l.379.364c.417.391.834.781,1.273,1.157.008,0,.011.008.019.011l.214.188c.383.334.77.669,1.164.976l.469.394c.319.255.65.5.976.751l.511.391c.349.263.721.522,1.078.777.131.094.263.188.4.274l.109.086,1.055.695.451.3c.552.353,1.1.687,1.645,1.018.158.079.315.165.462.255.406.233.826.469,1.236.687.225.128.458.237.691.353.282.158.575.312.875.469a1.216,1.216,0,0,1,.21.086c.124.056.24.116.361.177.451.225.92.439,1.408.653a3.061,3.061,0,0,1,.285.128c.541.237,1.082.462,1.641.684.128.038.263.1.394.15.507.192,1.029.387,1.544.571l.188.068c.575.2,1.142.383,1.724.563.135.038.274.086.417.124a18.261,18.261,0,0,0,1.776.511c38.533,7.023,49.733-23.169,49.733-23.169C78.436,75.41,61.742,78.64,45.93,75.046c-.586-.135-1.172-.323-1.761-.5q-1.072-.316-2.129-.68l-.233-.09c-.511-.173-1-.364-1.5-.556q-.2-.084-.413-.154c-.552-.222-1.089-.451-1.622-.687-.116-.038-.214-.09-.33-.135q-.681-.313-1.356-.638c-.139-.06-.263-.124-.4-.2-.353-.165-.706-.353-1.052-.533q-.356-.171-.7-.361c-.424-.225-.849-.469-1.273-.7-.128-.09-.274-.165-.421-.248q-.831-.492-1.645-1.01-.227-.141-.443-.3-.6-.368-1.172-.774c-.131-.086-.252-.18-.387-.274q-.56-.388-1.1-.8c-.158-.128-.327-.248-.5-.376-.331-.259-.665-.507-1-.781l-.443-.353q-.638-.515-1.254-1.055a.969.969,0,0,0-.139-.113l-1.3-1.187-.376-.353c-.308-.312-.623-.612-.939-.92l-.364-.376q-.6-.592-1.161-1.213l-.056-.06c-.4-.436-.785-.879-1.176-1.33-.1-.116-.2-.24-.3-.364l-.849-1.04q-.65-.833-1.277-1.683c-8.77-11.973-11.943-28.5-4.924-42.053m18.542-1.773c-5.78,8.3-5.453,19.391-.954,28.164a34.177,34.177,0,0,0,2.543,4.251,19.918,19.918,0,0,0,2.975,3.7c.4.458.838.9,1.292,1.348l.338.338q.642.62,1.314,1.221l.056.049q.76.663,1.555,1.284c.128.086.237.188.361.274.526.406,1.055.8,1.6,1.183l.056.034c.233.169.481.323.744.488.105.068.225.158.338.225.4.255.789.5,1.191.74.064.026.12.06.18.086.338.207.706.406,1.059.59.124.075.244.131.372.2.252.124.5.255.74.383l.12.053c.507.248,1.025.481,1.532.714.128.049.237.09.346.143.417.18.841.353,1.258.515.188.064.364.139.541.2.383.143.785.274,1.164.406l.526.169a12.71,12.71,0,0,0,1.683.484c29.745,4.931,36.633-17.979,36.633-17.979-6.2,8.924-18.2,13.175-30.988,9.855q-.848-.22-1.683-.488c-.18-.049-.338-.105-.511-.158-.391-.135-.792-.267-1.172-.409l-.541-.2c-.421-.169-.849-.327-1.258-.507-.128-.056-.244-.094-.342-.15-.526-.237-1.055-.469-1.566-.721l-.774-.4-.447-.225c-.346-.18-.665-.368-1-.563a2.329,2.329,0,0,1-.233-.128c-.4-.248-.811-.488-1.191-.744-.128-.071-.244-.158-.364-.233l-.781-.511c-.541-.376-1.07-.781-1.6-1.172-.12-.109-.237-.2-.353-.3A35.71,35.71,0,0,1,33.079,26.293a26.893,26.893,0,0,1,2.1-21.565m16.1-.552a17.339,17.339,0,0,0-1.39,16.732A23.612,23.612,0,0,0,63.425,33.546c.244.094.481.173.732.263l.33.1c.346.109.695.237,1.052.315,16.435,3.17,20.882-8.439,22.08-10.144C83.705,29.7,77.144,31.048,69.1,29.091a18.193,18.193,0,0,1-1.938-.6,23.826,23.826,0,0,1-2.317-.954,24.491,24.491,0,0,1-4.056-2.479C53.573,19.6,49.108,9.171,53.81.679" transform="translate(8.98 5.32)"/>
    </g>
    <path id="jquery-3" data-name="jquery" class="cls-2" d="M5.737,21.039c-7.973,11.455-6.986,26.354-.89,38.518.139.3.293.578.443.86a6.056,6.056,0,0,0,.289.56,3.17,3.17,0,0,0,.177.312c.1.2.2.383.3.571l.59,1c.109.184.214.364.338.548.207.353.451.7.665,1.055.1.146.188.293.3.439q.546.858,1.164,1.668c.293.4.586.792.9,1.183.1.143.214.285.319.428l.83,1.01c.1.116.2.252.312.372.368.443.759.875,1.149,1.311,0,.008.011.015.019.026a11.756,11.756,0,0,0,1.592,1.652c.3.308.6.616.92.916l.379.364c.417.391.834.781,1.273,1.157.008,0,.011.008.019.011l.214.188c.383.334.77.669,1.164.976l.469.394c.319.255.65.5.976.751l.511.391c.349.263.721.522,1.078.777.131.094.263.188.4.274l.109.086,1.055.695.451.3c.552.353,1.1.687,1.645,1.018.158.079.315.165.462.255.406.233.826.469,1.236.687.225.128.458.237.691.353.282.158.575.312.875.469a1.216,1.216,0,0,1,.21.086c.124.056.24.116.361.177.451.225.92.439,1.408.653a3.061,3.061,0,0,1,.285.128c.541.237,1.082.462,1.641.684.128.038.263.1.394.15.507.192,1.029.387,1.544.571l.188.068c.575.2,1.142.383,1.724.563.135.038.274.086.417.124a18.261,18.261,0,0,0,1.776.511c38.533,7.023,49.733-23.169,49.733-23.169C78.436,75.41,61.742,78.64,45.93,75.046c-.586-.135-1.172-.323-1.761-.5q-1.072-.316-2.129-.68l-.233-.09c-.511-.173-1-.364-1.5-.556q-.2-.084-.413-.154c-.552-.222-1.089-.451-1.622-.687-.116-.038-.214-.09-.33-.135q-.681-.313-1.356-.638c-.139-.06-.263-.124-.4-.2-.353-.165-.706-.353-1.052-.533q-.356-.171-.7-.361c-.424-.225-.849-.469-1.273-.7-.128-.09-.274-.165-.421-.248q-.831-.492-1.645-1.01-.227-.141-.443-.3-.6-.368-1.172-.774c-.131-.086-.252-.18-.387-.274q-.56-.388-1.1-.8c-.158-.128-.327-.248-.5-.376-.331-.259-.665-.507-1-.781l-.443-.353q-.638-.515-1.254-1.055a.969.969,0,0,0-.139-.113l-1.3-1.187-.376-.353c-.308-.312-.623-.612-.939-.92l-.364-.376q-.6-.592-1.161-1.213l-.056-.06c-.4-.436-.785-.879-1.176-1.33-.1-.116-.2-.24-.3-.364l-.849-1.04q-.65-.833-1.277-1.683c-8.77-11.973-11.943-28.5-4.924-42.053m18.542-1.773c-5.78,8.3-5.453,19.391-.954,28.164a34.177,34.177,0,0,0,2.543,4.251,19.918,19.918,0,0,0,2.975,3.7c.4.458.838.9,1.292,1.348l.338.338q.642.62,1.314,1.221l.056.049q.76.663,1.555,1.284c.128.086.237.188.361.274.526.406,1.055.8,1.6,1.183l.056.034c.233.169.481.323.744.488.105.068.225.158.338.225.4.255.789.5,1.191.74.064.026.12.06.18.086.338.207.706.406,1.059.59.124.075.244.131.372.2.252.124.5.255.74.383l.12.053c.507.248,1.025.481,1.532.714.128.049.237.09.346.143.417.18.841.353,1.258.515.188.064.364.139.541.2.383.143.785.274,1.164.406l.526.169a12.71,12.71,0,0,0,1.683.484c29.745,4.931,36.633-17.979,36.633-17.979-6.2,8.924-18.2,13.175-30.988,9.855q-.848-.22-1.683-.488c-.18-.049-.338-.105-.511-.158-.391-.135-.792-.267-1.172-.409l-.541-.2c-.421-.169-.849-.327-1.258-.507-.128-.056-.244-.094-.342-.15-.526-.237-1.055-.469-1.566-.721l-.774-.4-.447-.225c-.346-.18-.665-.368-1-.563a2.329,2.329,0,0,1-.233-.128c-.4-.248-.811-.488-1.191-.744-.128-.071-.244-.158-.364-.233l-.781-.511c-.541-.376-1.07-.781-1.6-1.172-.12-.109-.237-.2-.353-.3A35.71,35.71,0,0,1,33.079,26.293a26.893,26.893,0,0,1,2.1-21.565m16.1-.552a17.339,17.339,0,0,0-1.39,16.732A23.612,23.612,0,0,0,63.425,33.546c.244.094.481.173.732.263l.33.1c.346.109.695.237,1.052.315,16.435,3.17,20.882-8.439,22.08-10.144C83.705,29.7,77.144,31.048,69.1,29.091a18.193,18.193,0,0,1-1.938-.6,23.826,23.826,0,0,1-2.317-.954,24.491,24.491,0,0,1-4.056-2.479C53.573,19.6,49.108,9.171,53.81.679" transform="translate(229.752 313.722)"/>
    <text id="Jquery-4" data-name="Jquery" class="cls-3" transform="translate(308.606 429)"><tspan x="-68.04" y="0">Jquery</tspan></text>
  </g>
</svg>
