<svg xmlns="http://www.w3.org/2000/svg" xmlns:xlink="http://www.w3.org/1999/xlink" width="108.025" height="131.397" viewBox="0 0 108.025 131.397">
  <defs>
    <style>
      .cls-1 {
        fill: #fff;
      }

      .cls-2 {
        fill: #ff740f;
      }

      .cls-3 {
        fill: rgba(255,255,255,0.8);
        font-size: 20px;
        font-family: Poppins-Regular, Poppins;
      }

      .cls-4 {
        filter: url(#Icon_awesome-git-alt);
      }
    </style>
    <filter id="Icon_awesome-git-alt" x="0" y="0" width="108.025" height="108.023" filterUnits="userSpaceOnUse">
      <feOffset dy="3" input="SourceAlpha"/>
      <feGaussianBlur stdDeviation="3" result="blur"/>
      <feFlood flood-opacity="0.161"/>
      <feComposite operator="in" in2="blur"/>
      <feComposite in="SourceGraphic"/>
    </filter>
  </defs>
  <g id="_6" data-name="6" transform="translate(-410.66 -304.603)">
    <g id="git" transform="translate(419.66 310.603)">
      <rect id="Rectangle_19" data-name="Rectangle 19" class="cls-1" width="57.391" height="51.765" transform="translate(42.692 0.175) rotate(45)"/>
      <g class="cls-4" transform="matrix(1, 0, 0, 1, -9, -6)">
        <path id="Icon_awesome-git-alt-2" data-name="Icon awesome-git-alt" class="cls-2" d="M88.327,43.253,49.031,3.948a5.8,5.8,0,0,0-8.2,0L32.66,12.112,43.013,22.465a6.889,6.889,0,0,1,8.719,8.777l9.979,9.979c6.878-2.371,12.294,6.229,7.128,11.392-5.323,5.323-14.109-.577-11.253-7.5l-9.314-9.3V60.293c5.084,2.52,4.473,8.41,1.825,11.052a6.9,6.9,0,1,1-7.5-11.253V35.376a6.893,6.893,0,0,1-3.746-9.043L28.649,16.115,1.7,43.07a5.8,5.8,0,0,0,0,8.2L41.006,90.576a5.8,5.8,0,0,0,8.2,0L88.327,51.454a5.8,5.8,0,0,0,0-8.2Z" transform="translate(9 3.75)"/>
      </g>
    </g>
    <text id="Git-2" data-name="Git" class="cls-3" transform="translate(478.606 429)"><tspan x="-27.76" y="0">Git</tspan></text>
  </g>
</svg>
