<svg xmlns="http://www.w3.org/2000/svg" xmlns:xlink="http://www.w3.org/1999/xlink" width="108.187" height="142.762" viewBox="0 0 108.187 142.762">
  <defs>
    <style>
      .cls-1 {
        fill: #fff;
        stroke: #707070;
      }

      .cls-2 {
        fill: #003995;
      }

      .cls-3 {
        fill: rgba(255,255,255,0.8);
        font-size: 20px;
        font-family: Poppins-Regular, Poppins;
      }

      .cls-4 {
        stroke: none;
      }

      .cls-5 {
        fill: none;
      }

      .cls-6 {
        filter: url(#Icon_awesome-wordpress);
      }

      .cls-7 {
        filter: url(#Ellipse_2);
      }
    </style>
    <filter id="Ellipse_2" x="0.162" y="0" width="108.025" height="108.025" filterUnits="userSpaceOnUse">
      <feOffset dy="3" input="SourceAlpha"/>
      <feGaussianBlur stdDeviation="3" result="blur"/>
      <feFlood flood-opacity="0.161"/>
      <feComposite operator="in" in2="blur"/>
      <feComposite in="SourceGraphic"/>
    </filter>
    <filter id="Icon_awesome-wordpress" x="0.162" y="0" width="108.025" height="108.025" filterUnits="userSpaceOnUse">
      <feOffset dy="3" input="SourceAlpha"/>
      <feGaussianBlur stdDeviation="3" result="blur-2"/>
      <feFlood flood-opacity="0.161"/>
      <feComposite operator="in" in2="blur-2"/>
      <feComposite in="SourceGraphic"/>
    </filter>
  </defs>
  <g id="_7" data-name="7" transform="translate(-220.606 -463.238)">
    <g id="wordpress" transform="translate(229.769 469.238)">
      <g class="cls-7" transform="matrix(1, 0, 0, 1, -9.16, -6)">
        <g id="Ellipse_2-2" data-name="Ellipse 2" class="cls-1" transform="translate(9.16 6)">
          <ellipse class="cls-4" cx="45.013" cy="45.013" rx="45.013" ry="45.013"/>
          <ellipse class="cls-5" cx="45.013" cy="45.013" rx="44.513" ry="44.513"/>
        </g>
      </g>
      <g class="cls-6" transform="matrix(1, 0, 0, 1, -9.16, -6)">
        <path id="Icon_awesome-wordpress-2" data-name="Icon awesome-wordpress" class="cls-2" d="M10.309,29.857,28.732,80.315A38.621,38.621,0,0,1,10.309,29.857Zm61.33,13.776a20.363,20.363,0,0,0-3.176-10.654C66.5,29.8,64.669,27.1,64.669,23.922a6.683,6.683,0,0,1,6.48-6.861c.163,0,.327.018.508.036A38.609,38.609,0,0,0,13.3,24.357c.908.036,1.761.054,2.487.054,4.029,0,10.291-.49,10.291-.49a1.593,1.593,0,0,1,.254,3.176s-2.087.236-4.411.363L35.992,69.279,44.45,43.942l-6.008-16.48c-2.087-.127-4.048-.363-4.048-.363a1.593,1.593,0,0,1,.236-3.176s6.371.49,10.164.49c4.029,0,10.291-.49,10.291-.49A1.593,1.593,0,0,1,55.34,27.1s-2.087.236-4.411.363l13.958,41.51L68.735,56.1C70.368,50.766,71.639,46.936,71.639,43.633ZM46.247,48.951,34.667,82.62A38.475,38.475,0,0,0,58.389,82a2.892,2.892,0,0,1-.272-.526L46.247,48.951ZM79.461,27.044a30.084,30.084,0,0,1,.254,3.975,36.275,36.275,0,0,1-2.94,13.83l-11.8,34.1a38.652,38.652,0,0,0,14.484-51.91ZM90.588,45.575A45.013,45.013,0,1,1,45.575.563,45.063,45.063,0,0,1,90.588,45.575Zm-2.069,0A42.943,42.943,0,1,0,45.575,88.518,42.995,42.995,0,0,0,88.518,45.575Z" transform="translate(8.6 5.44)"/>
      </g>
    </g>
    <text id="Wordpress-2" data-name="Wordpress" class="cls-3" transform="translate(274.606 599)"><tspan x="-53.78" y="0">Wordpress</tspan></text>
  </g>
</svg>
