<svg xmlns="http://www.w3.org/2000/svg" xmlns:xlink="http://www.w3.org/1999/xlink" width="108.025" height="140.512" viewBox="0 0 108.025 140.512">
  <defs>
    <style>
      .cls-1 {
        fill: rgba(255,255,255,0.8);
        font-size: 20px;
        font-family: Poppins-Regular, Poppins;
      }

      .cls-2 {
        filter: url(#Icon_awesome-github);
      }
    </style>
    <filter id="Icon_awesome-github" x="0" y="0" width="108.025" height="105.776" filterUnits="userSpaceOnUse">
      <feOffset dy="3" input="SourceAlpha"/>
      <feGaussianBlur stdDeviation="3" result="blur"/>
      <feFlood flood-opacity="0.161"/>
      <feComposite operator="in" in2="blur"/>
      <feComposite in="SourceGraphic"/>
    </filter>
  </defs>
  <g id="_9" data-name="9" transform="translate(-407.284 -465.488)">
    <g id="github" transform="translate(416.284 471.488)">
      <g class="cls-2" transform="matrix(1, 0, 0, 1, -9, -6)">
        <path id="Icon_awesome-github-2" data-name="Icon awesome-github" d="M30.111,71.239c0,.363-.417.653-.944.653-.6.054-1.016-.236-1.016-.653,0-.363.417-.653.944-.653C29.639,70.532,30.111,70.822,30.111,71.239Zm-5.645-.817c-.127.363.236.78.78.889a.851.851,0,0,0,1.125-.363c.109-.363-.236-.78-.78-.944A.932.932,0,0,0,24.466,70.423Zm8.022-.309c-.526.127-.889.472-.835.889.054.363.526.6,1.071.472.526-.127.889-.472.835-.835C33.505,70.3,33.015,70.06,32.489,70.114ZM44.432.563C19.257.563,0,19.675,0,44.849A45.5,45.5,0,0,0,30.765,88.264c2.323.417,3.14-1.016,3.14-2.2,0-1.125-.054-7.333-.054-11.144,0,0-12.705,2.723-15.373-5.409,0,0-2.069-5.282-5.046-6.643,0,0-4.156-2.85.29-2.8a9.581,9.581,0,0,1,7.006,4.683c3.975,7.006,10.636,4.991,13.232,3.793a10.088,10.088,0,0,1,2.9-6.117c-10.146-1.125-20.383-2.6-20.383-20.056,0-4.991,1.379-7.5,4.283-10.69a17.149,17.149,0,0,1,.472-12.324c3.793-1.18,12.524,4.9,12.524,4.9a42.878,42.878,0,0,1,22.8,0s8.73-6.1,12.524-4.9a17.141,17.141,0,0,1,.472,12.324c2.9,3.213,4.683,5.717,4.683,10.69,0,17.515-10.69,18.913-20.836,20.056,1.67,1.434,3.086,4.156,3.086,8.422,0,6.117-.054,13.685-.054,15.174,0,1.18.835,2.614,3.14,2.2,18.15-6.026,30.456-23.25,30.456-43.379C90.025,19.675,69.606.563,44.432.563Zm-26.79,62.6c-.236.182-.182.6.127.944.29.29.708.417.944.182.236-.182.182-.6-.127-.944C18.3,63.054,17.878,62.927,17.642,63.163Zm-1.96-1.47c-.127.236.054.526.417.708a.54.54,0,0,0,.78-.127c.127-.236-.054-.526-.417-.708C16.1,61.456,15.809,61.511,15.682,61.692Zm5.881,6.461c-.29.236-.181.78.236,1.125.417.417.944.472,1.18.181.236-.236.127-.78-.236-1.125C22.343,67.918,21.8,67.863,21.562,68.154Zm-2.069-2.668c-.29.182-.29.653,0,1.071s.78.6,1.016.417a.828.828,0,0,0,0-1.125C20.256,65.431,19.784,65.25,19.493,65.486Z" transform="translate(9 5.44)"/>
      </g>
    </g>
    <text id="Github-2" data-name="Github" class="cls-1" transform="translate(461.606 599)"><tspan x="-33.44" y="0">Github</tspan></text>
  </g>
</svg>
