<svg xmlns="http://www.w3.org/2000/svg" xmlns:xlink="http://www.w3.org/1999/xlink" width="2081" height="2474" viewBox="0 0 2081 2474">
  <defs>
    <style>
      .cls-1, .cls-2, .cls-3, .cls-5, .cls-7 {
        fill: none;
      }

      .cls-1, .cls-2, .cls-3, .cls-4 {
        stroke: #ff7f11;
      }

      .cls-1, .cls-2, .cls-3 {
        stroke-width: 40px;
      }

      .cls-2 {
        opacity: 0.7;
      }

      .cls-3 {
        stroke-linecap: round;
      }

      .cls-4 {
        fill: #ff7f11;
        stroke-width: 3px;
        font-size: 200px;
        font-family: Poppins-Regular, Poppins;
      }

      .cls-5 {
        stroke: snow;
      }

      .cls-6 {
        stroke: none;
      }

      .cls-8 {
        filter: url(#Rectangle_21);
      }

      .cls-9 {
        filter: url(#Rectangle_20);
      }
    </style>
    <filter id="Rectangle_20" x="30" y="30" width="2021" height="2414" filterUnits="userSpaceOnUse">
      <feOffset input="SourceAlpha"/>
      <feGaussianBlur stdDeviation="10" result="blur"/>
      <feFlood flood-opacity="0.702"/>
      <feComposite operator="in" in2="blur"/>
      <feComposite in="SourceGraphic"/>
    </filter>
    <filter id="Rectangle_21" x="0" y="0" width="2081" height="2474" filterUnits="userSpaceOnUse">
      <feOffset input="SourceAlpha"/>
      <feGaussianBlur stdDeviation="20" result="blur-2"/>
      <feFlood flood-opacity="0.702"/>
      <feComposite operator="in" in2="blur-2"/>
      <feComposite in="SourceGraphic"/>
    </filter>
  </defs>
  <g id="calidad" transform="translate(-5108 -3352)">
    <g id="Ellipse_3" data-name="Ellipse 3" class="cls-1" transform="translate(5774 4477)">
      <circle class="cls-6" cx="375.5" cy="375.5" r="375.5"/>
      <circle class="cls-7" cx="375.5" cy="375.5" r="355.5"/>
    </g>
    <g id="Ellipse_5" data-name="Ellipse 5" class="cls-2" transform="translate(5799 4502)">
      <circle class="cls-6" cx="350.5" cy="350.5" r="350.5"/>
      <circle class="cls-7" cx="350.5" cy="350.5" r="330.5"/>
    </g>
    <path id="Path_1" data-name="Path 1" class="cls-1" d="M2694.5,4376c67-1.624,47.2,103.088,130.655,137.45s152.36-51.637,203.147,0-35.4,121.864,0,206.547,140.281,65.734,141.6,132.187-102.252,50.125-136.336,133.623,52.635,150.278,0,200.37-125.69-35.635-210.539,0-63.248,142.425-128.857,142.541-48.809-106.561-133.578-142.081-154.124,50.225-205.5,0,34.264-117.321,0-200.9-137.058-65.15-137.058-133.412,101.456-54.957,137.058-139.635-45.164-150.89,5.347-199.077,113.183,40.733,196.7,6.33S2627.5,4377.624,2694.5,4376Z" transform="translate(3455)"/>
    <path id="Path_2" data-name="Path 2" class="cls-2" d="M2728.732,4376c71.819-1.74,50.6,110.494,140.041,147.325s163.306-55.346,217.742,0-37.942,130.619,0,221.386,150.359,70.457,151.768,141.684-109.6,53.726-146.131,143.224,56.416,161.074,0,214.765-134.72-38.2-225.665,0-67.792,152.658-138.115,152.782-52.316-114.216-143.175-152.289-165.2,53.833-220.262,0,36.726-125.75,0-215.333-146.9-69.831-146.9-143,108.745-58.905,146.9-149.667-48.409-161.731,5.731-213.379,121.315,43.66,210.831,6.784S2656.913,4377.742,2728.732,4376Z" transform="translate(3420.806 -34.225)"/>
    <g id="Group_6" data-name="Group 6" transform="translate(-42 13)">
      <line id="Line_5" data-name="Line 5" class="cls-3" x2="68" y2="96" transform="translate(6043.5 4837.5)"/>
      <line id="Line_6" data-name="Line 6" class="cls-3" x1="219" y2="184" transform="translate(6120.5 4745.5)"/>
    </g>
    <text id="Trabajo_de_calidad" data-name="Trabajo de 
calidad" class="cls-4" transform="translate(6149 4026)"><tspan x="-566" y="0">Trabajo de </tspan><tspan x="-380.3" y="200">calidad</tspan></text>
    <g id="Group_12" data-name="Group 12" transform="translate(3094 -1763)">
      <g class="cls-9" transform="matrix(1, 0, 0, 1, 2014, 5115)">
        <g id="Rectangle_20-2" data-name="Rectangle 20" class="cls-5" transform="translate(60 60)">
          <rect class="cls-6" width="1961" height="2354" rx="250"/>
          <rect class="cls-7" x="0.5" y="0.5" width="1960" height="2353" rx="249.5"/>
        </g>
      </g>
      <g class="cls-8" transform="matrix(1, 0, 0, 1, 2014, 5115)">
        <g id="Rectangle_21-2" data-name="Rectangle 21" class="cls-5" transform="translate(60 60)">
          <rect class="cls-6" width="1961" height="2354" rx="250"/>
          <rect class="cls-7" x="0.5" y="0.5" width="1960" height="2353" rx="249.5"/>
        </g>
      </g>
    </g>
  </g>
</svg>
