<svg xmlns="http://www.w3.org/2000/svg" xmlns:xlink="http://www.w3.org/1999/xlink" width="2081" height="2474" viewBox="0 0 2081 2474">
  <defs>
    <style>
      .cls-1, .cls-2, .cls-3, .cls-5, .cls-7 {
        fill: none;
      }

      .cls-1 {
        stroke: rgba(0,0,0,0.3);
      }

      .cls-1, .cls-2, .cls-3 {
        stroke-width: 40px;
      }

      .cls-2, .cls-3, .cls-4 {
        stroke: #ff7f11;
      }

      .cls-3 {
        opacity: 0.7;
      }

      .cls-4 {
        fill: #ff7f11;
        stroke-width: 3px;
        font-size: 200px;
        font-family: Poppins-Regular, Poppins;
      }

      .cls-5 {
        stroke: snow;
      }

      .cls-6 {
        stroke: none;
      }

      .cls-8 {
        filter: url(#Rectangle_21);
      }

      .cls-9 {
        filter: url(#Rectangle_20);
      }
    </style>
    <filter id="Rectangle_20" x="30" y="30" width="2021" height="2414" filterUnits="userSpaceOnUse">
      <feOffset input="SourceAlpha"/>
      <feGaussianBlur stdDeviation="10" result="blur"/>
      <feFlood flood-opacity="0.702"/>
      <feComposite operator="in" in2="blur"/>
      <feComposite in="SourceGraphic"/>
    </filter>
    <filter id="Rectangle_21" x="0" y="0" width="2081" height="2474" filterUnits="userSpaceOnUse">
      <feOffset input="SourceAlpha"/>
      <feGaussianBlur stdDeviation="20" result="blur-2"/>
      <feFlood flood-opacity="0.702"/>
      <feComposite operator="in" in2="blur-2"/>
      <feComposite in="SourceGraphic"/>
    </filter>
  </defs>
  <g id="original" transform="translate(-4478 -3590)">
    <g id="Group_3" data-name="Group 3" transform="translate(251.969 319.329)">
      <g id="Ellipse_1" data-name="Ellipse 1" class="cls-1" transform="translate(4652.031 4392.671)">
        <ellipse class="cls-6" cx="156" cy="156.5" rx="156" ry="156.5"/>
        <ellipse class="cls-7" cx="156" cy="156.5" rx="136" ry="136.5"/>
      </g>
      <g id="Rectangle_18" data-name="Rectangle 18" class="cls-1" transform="translate(4633.031 4720.671)">
        <path class="cls-6" d="M175,0h0A175,175,0,0,1,350,175V508a0,0,0,0,1,0,0H0a0,0,0,0,1,0,0V175A175,175,0,0,1,175,0Z"/>
        <path class="cls-7" d="M175,20h0A155,155,0,0,1,330,175V470.778A17.222,17.222,0,0,1,312.778,488H37.222A17.222,17.222,0,0,1,20,470.778V175A155,155,0,0,1,175,20Z"/>
      </g>
    </g>
    <g id="Group_4" data-name="Group 4" transform="translate(1167.969 319.329)">
      <g id="Ellipse_1-2" data-name="Ellipse 1" class="cls-1" transform="translate(4652.031 4392.671)">
        <ellipse class="cls-6" cx="156" cy="156.5" rx="156" ry="156.5"/>
        <ellipse class="cls-7" cx="156" cy="156.5" rx="136" ry="136.5"/>
      </g>
      <g id="Rectangle_18-2" data-name="Rectangle 18" class="cls-1" transform="translate(4633.031 4720.671)">
        <path class="cls-6" d="M175,0h0A175,175,0,0,1,350,175V508a0,0,0,0,1,0,0H0a0,0,0,0,1,0,0V175A175,175,0,0,1,175,0Z"/>
        <path class="cls-7" d="M175,20h0A155,155,0,0,1,330,175V470.778A17.222,17.222,0,0,1,312.778,488H37.222A17.222,17.222,0,0,1,20,470.778V175A155,155,0,0,1,175,20Z"/>
      </g>
    </g>
    <g id="Group_2" data-name="Group 2" transform="translate(652 43)">
      <g id="Ellipse_1-3" data-name="Ellipse 1" class="cls-2" transform="translate(4658 4393)">
        <circle class="cls-6" cx="208" cy="208" r="208"/>
        <circle class="cls-7" cx="208" cy="208" r="188"/>
      </g>
      <g id="Ellipse_6" data-name="Ellipse 6" class="cls-3" transform="translate(4676 4411)">
        <circle class="cls-6" cx="190" cy="190" r="190"/>
        <circle class="cls-7" cx="190" cy="190" r="170"/>
      </g>
      <g id="Rectangle_18-3" data-name="Rectangle 18" class="cls-2" transform="translate(4633 4829)">
        <path class="cls-6" d="M200,0h66A200,200,0,0,1,466,200V676a0,0,0,0,1,0,0H0a0,0,0,0,1,0,0V200A200,200,0,0,1,200,0Z"/>
        <path class="cls-7" d="M200,20h66A180,180,0,0,1,446,200V636a20,20,0,0,1-20,20H40a20,20,0,0,1-20-20V200A180,180,0,0,1,200,20Z"/>
      </g>
      <g id="Rectangle_19" data-name="Rectangle 19" class="cls-3" transform="translate(4649 4840)">
        <path class="cls-6" d="M200,0h34A200,200,0,0,1,434,200V665a0,0,0,0,1,0,0H0a0,0,0,0,1,0,0V200A200,200,0,0,1,200,0Z"/>
        <path class="cls-7" d="M200,20h34A180,180,0,0,1,414,200V625a20,20,0,0,1-20,20H40a20,20,0,0,1-20-20V200A180,180,0,0,1,200,20Z"/>
      </g>
    </g>
    <text id="_100_original" data-name="100% original" class="cls-4" transform="translate(4884 4316)"><tspan x="0" y="0">100% original</tspan></text>
    <g id="Group_10" data-name="Group 10" transform="translate(2464 -1525)">
      <g class="cls-9" transform="matrix(1, 0, 0, 1, 2014, 5115)">
        <g id="Rectangle_20-2" data-name="Rectangle 20" class="cls-5" transform="translate(60 60)">
          <rect class="cls-6" width="1961" height="2354" rx="250"/>
          <rect class="cls-7" x="0.5" y="0.5" width="1960" height="2353" rx="249.5"/>
        </g>
      </g>
      <g class="cls-8" transform="matrix(1, 0, 0, 1, 2014, 5115)">
        <g id="Rectangle_21-2" data-name="Rectangle 21" class="cls-5" transform="translate(60 60)">
          <rect class="cls-6" width="1961" height="2354" rx="250"/>
          <rect class="cls-7" x="0.5" y="0.5" width="1960" height="2353" rx="249.5"/>
        </g>
      </g>
    </g>
  </g>
</svg>
