<svg xmlns="http://www.w3.org/2000/svg" width="97" height="87" viewBox="0 0 97 87">
  <defs>
    <style>
      .cls-1 {
        fill: #333;
      }

      .cls-2 {
        fill: #2f2f2f;
      }
    </style>
  </defs>
  <g id="Group_17" data-name="Group 17" transform="translate(-5535 -4128)">
    <rect id="Rectangle_10" data-name="Rectangle 10" class="cls-1" width="97" height="87" transform="translate(5535 4128)"/>
    <path id="Path_19" data-name="Path 19" class="cls-2" d="M10.971.12c3.038,0,12.415,2.806,12.415,5.568,0,1.455,4.642,6.645,0,7.427-2.415.408-12.988,8.032-20.81,11.072-3.418,1.328-6.828-.735-7.3-.735C-7.764,23.452,0,7.761,0,5S7.934.12,10.971.12Z" transform="translate(5550.431 4135.88)"/>
    <path id="Path_20" data-name="Path 20" class="cls-2" d="M10.971,24.633c3.038,0,12.415-2.806,12.415-5.568,0-1.455,4.642-6.645,0-7.427C20.971,11.23,10.4,3.605,2.576.565-.842-.763-4.252,1.3-4.726,1.3-7.764,1.3,0,16.991,0,19.752S7.934,24.633,10.971,24.633Z" transform="translate(5597.431 4135.88)"/>
    <path id="Path_21" data-name="Path 21" class="cls-2" d="M14.478,0C11.44,0,2.063,2.806,2.063,5.568c0,1.455-4.642,6.645,0,7.427,2.415.408,12.988,8.033,20.81,11.072,3.418,1.328,6.828-.735,7.3-.735,3.038,0-4.726-15.69-4.726-18.452S17.515,0,14.478,0Z" transform="translate(5574.57 4179.318) rotate(107)"/>
    <path id="Path_22" data-name="Path 22" class="cls-2" d="M16.4,0C19.44,0,28.817,2.806,28.817,5.568c0,1.455,4.642,6.645,0,7.427C26.4,13.4,15.828,21.028,8.007,24.067,4.589,25.4,1.179,23.332.7,23.332c-3.038,0,4.726-15.69,4.726-18.452S13.365,0,16.4,0Z" transform="translate(5597.384 4174) rotate(20)"/>
  </g>
</svg>
