<svg xmlns="http://www.w3.org/2000/svg" width="495" height="244" viewBox="0 0 495 244">
  <defs>
    <style>
      .cls-1 {
        fill: #08353c;
      }

      .cls-2 {
        fill: #fff;
      }

      .cls-12, .cls-16, .cls-3, .cls-5, .cls-6 {
        fill: none;
      }

      .cls-12, .cls-3, .cls-5, .cls-6 {
        stroke: #08353c;
      }

      .cls-3 {
        stroke-width: 15px;
      }

      .cls-4 {
        fill: #8bbdc6;
        opacity: 0.6;
      }

      .cls-5 {
        stroke-width: 12px;
      }

      .cls-6 {
        stroke-width: 10px;
      }

      .cls-7 {
        fill: #e4e4e4;
      }

      .cls-8 {
        fill: #f4f4f4;
      }

      .cls-9 {
        fill: #b9d7dd;
      }

      .cls-10 {
        fill: #f0f0f0;
      }

      .cls-11 {
        fill: #ffc79f;
      }

      .cls-11, .cls-13, .cls-14 {
        opacity: 0.9;
      }

      .cls-12 {
        stroke-width: 7px;
      }

      .cls-13 {
        fill: #d1a3f4;
      }

      .cls-14 {
        fill: #cd99f3;
      }

      .cls-15 {
        stroke: none;
      }
    </style>
  </defs>
  <g id="Group_41" data-name="Group 41" transform="translate(-4254 -1428)">
    <g id="Group_39" data-name="Group 39" transform="translate(-396.441 140.332)">
      <rect id="Rectangle_6" data-name="Rectangle 6" class="cls-1" width="248" height="6" transform="translate(4751.441 1487.668)"/>
      <rect id="Rectangle_4" data-name="Rectangle 4" class="cls-2" width="280" height="155" transform="translate(4735.441 1298.668)"/>
      <g id="Rectangle_2" data-name="Rectangle 2" class="cls-3" transform="translate(4726.441 1287.668)">
        <rect class="cls-15" width="299" height="185" rx="20"/>
        <rect class="cls-16" x="7.5" y="7.5" width="284" height="170" rx="12.5"/>
      </g>
      <g id="Rectangle_3" data-name="Rectangle 3" class="cls-3" transform="translate(4726.441 1287.668)">
        <rect class="cls-15" width="299" height="174" rx="20"/>
        <rect class="cls-16" x="7.5" y="7.5" width="284" height="159" rx="12.5"/>
      </g>
      <rect id="Rectangle_18" data-name="Rectangle 18" class="cls-4" width="177" height="68" rx="10" transform="translate(4813.441 1371.668)"/>
      <rect id="Rectangle_8" data-name="Rectangle 8" class="cls-2" width="222" height="127" rx="25" transform="translate(4907.441 1379.668)"/>
      <g id="Rectangle_7" data-name="Rectangle 7" class="cls-5" transform="translate(4902.441 1375.668)">
        <rect class="cls-15" width="231" height="135" rx="20"/>
        <rect class="cls-16" x="6" y="6" width="219" height="123" rx="14"/>
      </g>
      <g id="Group_23" data-name="Group 23" transform="translate(4677.477 1405.978)">
        <rect id="Rectangle_11" data-name="Rectangle 11" class="cls-2" width="82" height="113" transform="translate(3.964 4.69)"/>
        <g id="Rectangle_10" data-name="Rectangle 10" class="cls-6" transform="translate(-0.036 -0.31)">
          <rect class="cls-15" width="91" height="126" rx="10"/>
          <rect class="cls-16" x="5" y="5" width="81" height="116" rx="5"/>
        </g>
      </g>
      <rect id="Rectangle_14" data-name="Rectangle 14" class="cls-7" width="64" height="24" rx="4" transform="translate(4691.441 1419.668)"/>
      <path id="Rectangle_87" data-name="Rectangle 87" class="cls-8" d="M0,0H42a4,4,0,0,1,4,4V20a4,4,0,0,1-4,4H0a0,0,0,0,1,0,0V0A0,0,0,0,1,0,0Z" transform="translate(4709.441 1419.668)"/>
      <rect id="Rectangle_17" data-name="Rectangle 17" class="cls-9" width="64" height="25" rx="4" transform="translate(4691.441 1490.668)"/>
      <rect id="Rectangle_5" data-name="Rectangle 5" class="cls-1" width="51" height="25" transform="translate(4851.441 1468.668)"/>
      <path id="Rectangle_9" data-name="Rectangle 9" class="cls-10" d="M0,0H255a0,0,0,0,1,0,0V0a16,16,0,0,1-16,16H16A16,16,0,0,1,0,0V0A0,0,0,0,1,0,0Z" transform="translate(4890.441 1510.668)"/>
      <rect id="Rectangle_12" data-name="Rectangle 12" class="cls-7" width="81" height="49" rx="10" transform="translate(4759.441 1316.668)"/>
      <path id="Rectangle_85" data-name="Rectangle 85" class="cls-8" d="M0,0H45A10,10,0,0,1,55,10V39A10,10,0,0,1,45,49H0a0,0,0,0,1,0,0V0A0,0,0,0,1,0,0Z" transform="translate(4785.441 1316.668)"/>
      <rect id="Rectangle_13" data-name="Rectangle 13" class="cls-7" width="63" height="39" rx="10" transform="translate(4927.441 1397.668)"/>
      <rect id="Rectangle_19" data-name="Rectangle 19" class="cls-9" width="142" height="43" rx="10" transform="translate(4961.441 1444.668)"/>
      <rect id="Rectangle_20" data-name="Rectangle 20" class="cls-1" width="133" height="4" transform="translate(4857.441 1316.668)"/>
      <rect id="Rectangle_32" data-name="Rectangle 32" class="cls-1" width="133" height="3" transform="translate(4857.441 1325.668)"/>
      <rect id="Rectangle_33" data-name="Rectangle 33" class="cls-1" width="133" height="3" transform="translate(4857.441 1333.668)"/>
      <rect id="Rectangle_34" data-name="Rectangle 34" class="cls-1" width="133" height="3" transform="translate(4857.441 1341.668)"/>
      <rect id="Rectangle_24" data-name="Rectangle 24" class="cls-1" width="105" height="3" transform="translate(4998.441 1397.668)"/>
      <rect id="Rectangle_35" data-name="Rectangle 35" class="cls-1" width="105" height="4" transform="translate(4998.441 1405.668)"/>
      <rect id="Rectangle_36" data-name="Rectangle 36" class="cls-1" width="105" height="4" transform="translate(4998.441 1413.668)"/>
      <rect id="Rectangle_37" data-name="Rectangle 37" class="cls-1" width="105" height="4" transform="translate(4998.441 1421.668)"/>
      <rect id="Rectangle_38" data-name="Rectangle 38" class="cls-1" width="42" height="2" transform="translate(4713.441 1448.668)"/>
      <rect id="Rectangle_40" data-name="Rectangle 40" class="cls-1" width="42" height="2" transform="translate(4713.441 1456.668)"/>
      <rect id="Rectangle_39" data-name="Rectangle 39" class="cls-1" width="42" height="2" transform="translate(4713.441 1452.668)"/>
      <rect id="Rectangle_41" data-name="Rectangle 41" class="cls-1" width="42" height="2" transform="translate(4713.441 1460.668)"/>
      <ellipse id="Ellipse_18" data-name="Ellipse 18" class="cls-11" cx="9" cy="9.5" rx="9" ry="9.5" transform="translate(4700.441 1467.668)"/>
      <g id="Group_24" data-name="Group 24" transform="translate(4650.818 1436.676)">
        <rect id="Rectangle_11-2" data-name="Rectangle 11" class="cls-2" width="55" height="87" rx="10" transform="translate(3.623 2.992)"/>
        <g id="Rectangle_10-2" data-name="Rectangle 10" class="cls-12" transform="translate(-0.377 -0.008)">
          <rect class="cls-15" width="63" height="95" rx="10"/>
          <rect class="cls-16" x="3.5" y="3.5" width="56" height="88" rx="6.5"/>
        </g>
      </g>
      <rect id="Rectangle_15" data-name="Rectangle 15" class="cls-7" width="37" height="16" rx="4" transform="translate(4663.441 1447.668)"/>
      <path id="Rectangle_88" data-name="Rectangle 88" class="cls-8" d="M0,0H19a4,4,0,0,1,4,4v8a4,4,0,0,1-4,4H0a0,0,0,0,1,0,0V0A0,0,0,0,1,0,0Z" transform="translate(4677.441 1447.668)"/>
      <rect id="Rectangle_16" data-name="Rectangle 16" class="cls-9" width="37" height="17" rx="4" transform="translate(4663.441 1503.668)"/>
      <rect id="Rectangle_28" data-name="Rectangle 28" class="cls-1" width="37" height="1" transform="translate(4663.441 1467.668)"/>
      <rect id="Rectangle_29" data-name="Rectangle 29" class="cls-1" width="37" height="1" transform="translate(4663.441 1471.668)"/>
      <rect id="Rectangle_31" data-name="Rectangle 31" class="cls-1" width="37" height="1" transform="translate(4663.441 1479.668)"/>
      <rect id="Rectangle_30" data-name="Rectangle 30" class="cls-1" width="37" height="1" transform="translate(4663.441 1475.668)"/>
      <path id="Rectangle_86" data-name="Rectangle 86" class="cls-8" d="M0,0H31A10,10,0,0,1,41,10V29A10,10,0,0,1,31,39H0a0,0,0,0,1,0,0V0A0,0,0,0,1,0,0Z" transform="translate(4949.441 1397.668)"/>
    </g>
    <circle id="Ellipse_13" data-name="Ellipse 13" class="cls-11" cx="13" cy="13" r="13" transform="translate(4378 1514)"/>
    <ellipse id="Ellipse_16" data-name="Ellipse 16" class="cls-11" cx="9" cy="9.5" rx="9" ry="9.5" transform="translate(4537 1586)"/>
    <ellipse id="Ellipse_19" data-name="Ellipse 19" class="cls-13" cx="9" cy="9.5" rx="9" ry="9.5" transform="translate(4331 1609)"/>
    <ellipse id="Ellipse_20" data-name="Ellipse 20" class="cls-11" cx="7" cy="7.5" rx="7" ry="7.5" transform="translate(4267 1625)"/>
    <ellipse id="Ellipse_21" data-name="Ellipse 21" class="cls-13" cx="7" cy="7.5" rx="7" ry="7.5" transform="translate(4289 1625)"/>
    <circle id="Ellipse_14" data-name="Ellipse 14" class="cls-14" cx="13" cy="13" r="13" transform="translate(4378 1546)"/>
    <ellipse id="Ellipse_15" data-name="Ellipse 15" class="cls-13" cx="9" cy="9.5" rx="9" ry="9.5" transform="translate(4537 1609)"/>
  </g>
</svg>
